<?xml version="1.0" encoding="utf-8"?>
<!-- Generator: Adobe Illustrator 26.3.1, SVG Export Plug-In . SVG Version: 6.00 Build 0)  -->
<svg version="1.1" id="レイヤー_1" xmlns="http://www.w3.org/2000/svg" xmlns:xlink="http://www.w3.org/1999/xlink" x="0px"
	 y="0px" width="30px" height="23px" viewBox="0 0 30 23" style="enable-background:new 0 0 30 23;" xml:space="preserve">
<style type="text/css">
	.st0{fill:#525C65;}
</style>
<path class="st0" d="M27.2,1.6c-1.5-2.1-3.7-1.8-5.1-1c-0.2,0.2-0.6,0.2-0.8,0c-1.4-0.8-3.5-1.2-5,0.7C17.2,2,17.7,3,17.9,3.9
	c0.2,1.4-0.2,2.5-1.1,3.6l0,0c0,0.8-0.1,2,0,2.9c0.2,1.5,1.3,3.2,2,3.2c0.7,0,1-4.9,3-4.9s2.2,4.9,3,4.9c0.7,0,1.8-1.7,2-3.2
	c0.1-1.4-0.2-3.2,0.1-3.9C27,5.7,28.3,3.1,27.2,1.6z"/>
<path class="st0" d="M19.2,22.9c2.5,0,5.1,0,7.6,0c0.6,0,0.8-0.2,0.8-0.8c0-1.3,0-2.6,0-3.9c0-0.6-0.2-0.8-0.8-0.8s-1.4,0-2,0
	c-0.1,0-0.3-0.1-0.4-0.1c-0.6-0.5-1.4-1.1-2-1.7c-1-0.7-2-1.1-3.2-1.1c-2.3,0-4.7,0-7,0c-0.8,0-1.5,0.6-1.5,1.5
	c0,0.6,0.5,1.2,1.2,1.3c0.1,0,0.3,0,0.4,0c1.1,0,2.1,0,3.2,0c0.5,0,0.8,0.4,0.6,1c-0.1,0.3-0.4,0.4-0.7,0.4c-1.6,0-3.1,0-4.7,0
	c-0.3,0-0.6-0.1-1-0.3c-1.6-1.2-3.2-2.3-4.8-3.6c-0.6-0.4-1.3-0.6-2-0.2c-1.1,0.6-1.2,2.1-0.2,3c2,1.5,3.9,3,5.9,4.4
	c0.8,0.6,1.8,1,2.9,1C14.3,22.9,16.7,22.9,19.2,22.9z"/>
<path class="st0" d="M9.7,2.5c0.3-0.3,0.6-0.6,1.1-1c2.7-2.1,5.8-0.1,6.1,2.4c0.2,1.4-0.2,2.5-1.1,3.6c-1.8,1.9-3.5,3.8-5.3,5.6
	c-0.4,0.5-1,0.5-1.5,0c-1.8-1.8-3.6-3.7-5.4-5.6C2,5.8,2,3.3,3.6,1.7c1.4-1.3,3.5-1.4,5-0.2C9,1.8,9.3,2.1,9.7,2.5z"/>
</svg>
