<?xml version="1.0" encoding="utf-8"?>
<!-- Generator: Adobe Illustrator 27.0.1, SVG Export Plug-In . SVG Version: 6.00 Build 0)  -->
<svg version="1.1" id="レイヤー_1" xmlns="http://www.w3.org/2000/svg" xmlns:xlink="http://www.w3.org/1999/xlink" x="0px"
	 y="0px" viewBox="0 0 122 21" style="enable-background:new 0 0 122 21;" xml:space="preserve">
<style type="text/css">
	.st0{fill-rule:evenodd;clip-rule:evenodd;fill:#231815;}
</style>
<g>
	<path class="st0" d="M7.1,6.6l0.1-0.9H4.4l-0.6,4.9h2.8l0.3-2.7h0.8l0.3,3h2.8l-0.3-3h0.7V6.6H7.1z M14.6,6.6l0.1-0.9h-2.8
		l-0.6,4.9h2.8l0.3-2.7h0.8l0.3,3h2.8l-0.3-3h0.7V6.6H14.6z M9.8,12.8l-1.2,1.5H4v1.2h3.5L3.8,20h3.4l3.7-4.6l4.5,4.6h3.4l-4.5-4.6
		h4.2v-1.2H12l1.3-1.5l4.6-0.1v-1.4L4.6,11.5v1.4L9.8,12.8z"/>
	<path class="st0" d="M24.8,8.1l-0.3,1.5h-0.8l-0.3-1.5H24.8z M27.3,16.2l-4.8,4.1h2.3l2.6-2.2L27.3,16.2L27.3,16.2z M27.3,14.9V13
		L23,16.6l-0.1,2L27.3,14.9z M23.1,15.2l4.3-3.5h-2.3l-1.9,1.5L23.1,15.2z M21,8.1l0.3,1.5h-0.8l-0.6,10.7h2.6l0.5-9.5h4.7V9.6h-0.9
		L27,8.1h0.6V7.2h2.6l-0.3,1.4h-2V17h6.7V8.5h-2.3l0.3-1.4h2.3V6h-7.5v0.9h-2.3V5.7h-2.5v1.2h-2.3v1.2C20.3,8.1,21,8.1,21,8.1z
		 M30.4,14.5h1.7v1.2h-1.7V14.5z M30.4,12.4h1.7v0.9h-1.7V12.4z M30.4,10.2h1.7v1h-1.7V10.2z M32.7,20.3H35l-0.8-2.7h-2.3L32.7,20.3
		z M29.9,20.3l0.8-2.7h-2.3l-0.8,2.7H29.9z"/>
	<path class="st0" d="M40.8,16h0.9v3.1h-0.9V16z M41.6,12.7v0.6h-1.9v-0.6H41.6z M41.6,10.8v0.6h-1.8v-0.6H41.6z M40.6,7.9L42,8.4
		h-2.7L40.6,7.9z M48.4,20.3c1.6,0,2.5-0.8,2.5-2.3V6h-2.7v12c0,0.7-0.4,1.1-1.1,1.1h-0.3v1.2C46.8,20.3,48.4,20.3,48.4,20.3z
		 M47.4,16.8V7h-2.5v9.8H47.4z M39.1,8.4v1.1H37l-0.6,9.8h1.4v1.1h6.5v-5.5h-4.8v-0.3h4.8V9.4h-2.5v-1l2.7,1.1V7.3l-4.1-1.6
		l-4.1,1.6v2.2L39.1,8.4z"/>
	<path class="st0" d="M56.6,8.4V7l-4.3-1.1v1.4L56.6,8.4z M53.8,12.1v4.6l-1.4,1.4v2.2l1.6-1.6c0.3,1.1,0.9,1.6,2.1,1.6h11.3v-1.2
		H58c-0.9,0-1.4-0.5-1.4-1.4v-6.9h-4.2V12L53.8,12.1L53.8,12.1z M64.1,13.9V17h-3.7v-3.1H64.1z M66.8,18.2v-5.5h-9.2v5.5H66.8z
		 M59.4,10l0.2-1.9h1.5v2.7h-4.3V12h10.4v-1.2h-3.4V8.1h3.1V6.9h-3.1V5.7h-2.7v1.2h-1.3L60,5.7h-2.6L56.8,10H59.4z"/>
	<path class="st0" d="M73.8,10.2V8.1h0.3l0.1,2.1C74.2,10.2,73.8,10.2,73.8,10.2z M79,8.1l0.2,2.1h-0.6l0.1-2.1H79z M71.8,15.9
		L71.3,16v-2.4h0.5V15.9z M83.6,8.9l-0.3-3.3h-2l0.3,3.3H83.6z M76.3,17.9V16h0.5v1.8h-0.5V17.9z M76.8,13v1.8h-0.5V13H76.8z
		 M76.8,8.1l-0.1,2.1h-0.4l-0.1-2.1H76.8z M76.9,19.1L76,20.3h2.2l1.8-2.1c0.1,1.4,0.8,2.1,1.9,2.1h1.7v-1.2h-0.3
		c-0.7,0-1-0.4-1.1-1.2L82,15.8l1.6-1.9v-2.5l-1.8,2.1l-0.2-2.1h2v-1.2h-2.1L81,5.7h-2.3l0.1,1.1h-1.1V5.7h-2.5v1.1h-0.9V6h-5.9v1.2
		H69v9.5l-0.5,0.1v1.4l3-0.6v2.8h2.2v-8.9h5.6l0.4,4.4l-1,1.1v-5.2h-4.5v7.3H76.9z M71.3,10.5h0.5v1.8h-0.5V10.5z M71.8,7.2v2.1
		h-0.5V7.2H71.8z"/>
	<polygon class="st0" points="88.2,20.3 91.5,12.8 96.1,20.3 99.5,20.3 93.8,11.1 92.3,11.1 94.7,5.7 91.6,5.7 85.1,20.3 	"/>
</g>
<g>
	<path class="st0" d="M8.1,0.6l-0.4,2C7.6,3.2,7.5,3.7,7.4,4.2l0,0c-0.1-0.5-0.2-1-0.3-1.5L6.7,0.6H6L5.5,2.7
		C5.4,3.3,5.3,3.8,5.2,4.2l0,0C5.1,3.8,5,3.2,4.9,2.7L4.5,0.6H3.8l1,4.1h0.7L6,2.8c0.1-0.7,0.2-1.1,0.3-1.6l0,0
		c0,0.5,0.1,0.9,0.2,1.4L7,4.8h0.7l1.1-4.1L8.1,0.6z"/>
	<path class="st0" d="M9.5,3c0-0.3,0.2-0.8,0.7-0.8s0.7,0.4,0.7,0.8H9.5z M11.3,4.2c-0.2,0.1-0.4,0.2-0.8,0.2c-0.5,0-1-0.3-1-1h2
		c0-0.1,0-0.1,0-0.2c0-0.7-0.3-1.3-1.2-1.3c-0.9,0-1.4,0.6-1.4,1.5s0.5,1.5,1.5,1.5c0.4,0,0.8-0.1,1-0.1L11.3,4.2z"/>
	<path class="st0" d="M14.8,3.7c0,0.4-0.3,0.7-0.6,0.7c-0.2,0-0.4-0.2-0.4-0.5c0-0.6,0.6-0.7,1-0.7C14.8,3.2,14.8,3.7,14.8,3.7z
		 M15.3,2.9c0-0.6-0.2-1-1.1-1c-0.4,0-0.7,0.1-0.9,0.2l0.1,0.4c0.2-0.1,0.4-0.2,0.7-0.2c0.6,0,0.6,0.4,0.6,0.6c-1,0-1.6,0.3-1.6,1.1
		c0,0.5,0.3,0.8,0.8,0.8c0.4,0,0.7-0.1,0.8-0.3l0,0v0.4h0.5c0-0.2,0-0.5,0-0.8L15.3,2.9L15.3,2.9z"/>
	<path class="st0" d="M17.6,1.8c-0.1,0-0.1,0-0.2,0c-0.3,0-0.6,0.1-0.8,0.4l0,0V1.8h-0.5c0,0.3,0,0.6,0,0.9v2.1h0.6V3.2
		c0-0.6,0.3-1,0.7-1c0.1,0,0.1,0,0.2,0V1.8z"/>
	<path class="st0" d="M18.6,3c0-0.3,0.2-0.8,0.7-0.8S20,2.7,20,3H18.6z M20.3,4.2c-0.2,0.1-0.4,0.2-0.8,0.2c-0.5,0-1-0.3-1-1h2
		c0-0.1,0-0.1,0-0.2c0-0.7-0.3-1.3-1.2-1.3s-1.4,0.6-1.4,1.5s0.5,1.5,1.5,1.5c0.4,0,0.8-0.1,1-0.1L20.3,4.2z"/>
	<path class="st0" d="M24.1,2c-0.2-0.1-0.4-0.1-0.7-0.1c-0.7,0-1.1,0.3-1.1,0.8c0,0.3,0.2,0.6,0.8,0.8c0.5,0.2,0.6,0.3,0.6,0.5
		c0,0.2-0.2,0.4-0.6,0.4c-0.3,0-0.6-0.1-0.7-0.2l-0.1,0.4c0.2,0.1,0.5,0.2,0.8,0.2c0.8,0,1.2-0.3,1.2-0.8c0-0.4-0.2-0.7-0.8-0.9
		c-0.5-0.2-0.6-0.3-0.6-0.5s0.2-0.4,0.6-0.4c0.3,0,0.5,0.1,0.6,0.2V2z"/>
	<path class="st0" d="M29,3c0-0.9-0.5-1.1-0.9-1.1c-0.5,0-0.8,0.2-1,0.4l0,0C27,2,26.7,1.8,26.3,1.8c-0.5,0-0.8,0.2-0.9,0.4l0,0V1.8
		h-0.5c0,0.3,0,0.5,0,0.8v2.1h0.6V3c0-0.5,0.3-0.8,0.7-0.8s0.6,0.3,0.6,0.7v1.8h0.6V2.9c0-0.4,0.3-0.7,0.6-0.7
		c0.4,0,0.6,0.3,0.6,0.8v1.7H29V3z"/>
	<path class="st0" d="M30.2,1.8h-0.6v3h0.6V1.8z M30.2,0.9c0-0.2-0.1-0.3-0.3-0.3s-0.3,0.1-0.3,0.3s0.1,0.3,0.3,0.3
		C30.1,1.2,30.2,1.1,30.2,0.9z"/>
	<rect x="31" y="0.4" class="st0" width="0.6" height="4.4"/>
	<path class="st0" d="M32.8,3c0-0.3,0.2-0.8,0.7-0.8s0.7,0.4,0.7,0.8H32.8z M34.6,4.2c-0.2,0.1-0.4,0.2-0.8,0.2c-0.5,0-1-0.3-1-1h2
		c0-0.1,0-0.1,0-0.2c0-0.7-0.3-1.3-1.2-1.3s-1.4,0.6-1.4,1.5s0.5,1.5,1.5,1.5c0.4,0,0.8-0.1,1-0.1L34.6,4.2z"/>
	<path class="st0" d="M38.5,4.3c-0.1,0.1-0.3,0.1-0.6,0.1C37.4,4.4,37,4,37,3.3c0-0.6,0.3-1.1,0.9-1.1c0.3,0,0.4,0.1,0.5,0.1
		l0.1-0.4c-0.1,0-0.4-0.1-0.7-0.1c-1,0-1.5,0.6-1.5,1.5c0,1,0.5,1.4,1.4,1.4c0.3,0,0.6-0.1,0.8-0.1V4.3z"/>
	<path class="st0" d="M40.7,1.8c-0.1,0-0.1,0-0.2,0c-0.3,0-0.6,0.1-0.8,0.4l0,0V1.8h-0.5c0,0.3,0,0.6,0,0.9v2.1h0.6V3.2
		c0-0.6,0.3-1,0.7-1c0.1,0,0.1,0,0.2,0V1.8z"/>
	<path class="st0" d="M41.7,3c0-0.3,0.2-0.8,0.7-0.8s0.7,0.4,0.7,0.8H41.7z M43.4,4.2c-0.2,0.1-0.4,0.2-0.8,0.2c-0.5,0-1-0.3-1-1h2
		c0-0.1,0-0.1,0-0.2c0-0.7-0.3-1.3-1.2-1.3S41,2.5,41,3.4s0.5,1.5,1.5,1.5c0.4,0,0.8-0.1,1-0.1L43.4,4.2z"/>
	<path class="st0" d="M45.7,3.7c0,0.4-0.3,0.7-0.6,0.7c-0.2,0-0.4-0.2-0.4-0.5c0-0.6,0.6-0.7,1-0.7V3.7z M46.3,2.9
		c0-0.6-0.2-1-1.1-1c-0.4,0-0.7,0.1-0.9,0.2l0.1,0.4c0.2-0.1,0.4-0.2,0.7-0.2c0.6,0,0.6,0.4,0.6,0.6c-1,0-1.6,0.3-1.6,1.1
		c0,0.5,0.3,0.8,0.8,0.8c0.4,0,0.7-0.1,0.8-0.3l0,0v0.4h0.5c0-0.2,0-0.5,0-0.8V2.9H46.3z"/>
	<path class="st0" d="M47.3,1.8h-0.4v0.4h0.4v1.6c0,0.4,0.1,0.6,0.2,0.7s0.3,0.2,0.6,0.2c0.2,0,0.4,0,0.5-0.1V4.2
		c-0.1,0-0.2,0-0.3,0c-0.3,0-0.4-0.2-0.4-0.6V2.2h0.7V1.8h-0.7V1.1l-0.6,0.2C47.3,1.3,47.3,1.8,47.3,1.8z"/>
	<path class="st0" d="M51.1,3.3c0,0.6-0.3,1.1-0.8,1.1s-0.8-0.5-0.8-1.1c0-0.5,0.2-1.1,0.8-1.1C50.9,2.2,51.1,2.8,51.1,3.3z
		 M50.3,1.8c-0.9,0-1.4,0.5-1.4,1.5s0.5,1.4,1.4,1.4c0.7,0,1.4-0.4,1.4-1.5C51.7,2.4,51.2,1.8,50.3,1.8z"/>
	<path class="st0" d="M53.8,1.8c-0.1,0-0.1,0-0.2,0c-0.3,0-0.6,0.1-0.8,0.4l0,0V1.8h-0.5c0,0.3,0,0.6,0,0.9v2.1h0.6V3.2
		c0-0.6,0.3-1,0.7-1c0.1,0,0.1,0,0.2,0C53.8,2.2,53.8,1.8,53.8,1.8z"/>
	<path class="st0" d="M56,2c-0.2-0.1-0.4-0.1-0.7-0.1c-0.7,0-1.1,0.3-1.1,0.8c0,0.3,0.2,0.6,0.8,0.8c0.5,0.2,0.6,0.3,0.6,0.5
		c0,0.2-0.2,0.4-0.6,0.4c-0.3,0-0.6-0.1-0.7-0.2l-0.1,0.4c0.2,0.1,0.5,0.2,0.8,0.2c0.8,0,1.2-0.3,1.2-0.8c0-0.4-0.2-0.7-0.8-0.9
		c-0.5-0.2-0.6-0.3-0.6-0.5s0.2-0.4,0.6-0.4c0.3,0,0.5,0.1,0.6,0.2L56,2z"/>
	<path class="st0" d="M57.1,4.7c0.2,0,0.4-0.2,0.4-0.4c0-0.2-0.2-0.4-0.4-0.4c-0.2,0-0.4,0.2-0.4,0.4C56.8,4.6,56.9,4.7,57.1,4.7z"
		/>
</g>
</svg>
