<?xml version="1.0" encoding="UTF-8"?><svg id="a" xmlns="http://www.w3.org/2000/svg" viewBox="0 0 183.45 40.69"><defs><style>.b,.c{fill:#fff;}.c{fill-rule:evenodd;}</style></defs><g><path class="c" d="M11.59,.47l-1.02,4.61c-.25,1.38-.48,2.52-.64,3.7h-.04c-.14-1.16-.36-2.32-.6-3.51L8.29,.47h-1.45l-1.09,4.77c-.28,1.28-.55,2.47-.7,3.55h-.02c-.16-1.04-.38-2.28-.62-3.52L3.45,.47H1.91l2.24,9.65h1.53l1.14-4.43c.29-1.66,.5-2.67,.65-3.77h.04c.11,1.1,.3,2.14,.55,3.34l1.04,4.97h1.51L13.08,.58l-1.48-.11Z"/><path class="c" d="M14.96,6.08c.08-.79,.58-1.83,1.74-1.83s1.59,1.01,1.58,1.83h-3.31Zm4.09,2.83c-.44,.2-.98,.35-1.81,.35-1.2,0-2.25-.63-2.29-2.3h4.64c.02-.15,.04-.32,.04-.52,0-1.62-.76-3.07-2.81-3.07s-3.21,1.47-3.21,3.39c0,2.21,1.15,3.38,3.4,3.38,1.03,0,1.8-.15,2.28-.33l-.23-.9Z"/><path class="c" d="M27.19,7.71c0,.89-.65,1.54-1.43,1.54-.53,0-1.01-.37-1.01-1.2,0-1.34,1.3-1.57,2.43-1.57v1.22Zm1.31-1.92c0-1.3-.52-2.43-2.47-2.43-.92,0-1.7,.22-2.16,.48l.28,.82c.41-.26,1.01-.42,1.62-.42,1.38,0,1.38,.91,1.38,1.37-2.35,0-3.74,.77-3.74,2.61,0,1.13,.69,1.92,1.93,1.92,.86,0,1.52-.33,1.9-.78h.04l.09,.87h1.22c-.09-.49-.1-1.14-.1-1.77v-2.66Z"/><path class="c" d="M33.81,3.27c-.13,.1-.22,.09-.36,.09-.76,0-1.49,.34-1.8,.9h-.04l-.05-1h-1.18c.04,.65,.05,1.31,.05,2.12v4.83h1.35v-3.68c0-1.45,.62-2.3,1.6-2.3,.16,0,.3,.01,.43,.04v-1.01Z"/><path class="c" d="M36,6.08c.08-.79,.58-1.83,1.74-1.83s1.59,1.01,1.58,1.83h-3.31Zm4.09,2.83c-.44,.2-.98,.35-1.81,.35-1.2,0-2.25-.63-2.29-2.3h4.64c.02-.15,.04-.32,.04-.52,0-1.62-.76-3.07-2.81-3.07s-3.21,1.47-3.21,3.39c0,2.21,1.15,3.38,3.4,3.38,1.03,0,1.8-.15,2.28-.33l-.23-.9Z"/><path class="c" d="M48.83,3.7c-.36-.18-.92-.33-1.73-.33-1.73,0-2.64,.75-2.64,1.87,0,.79,.52,1.48,1.83,1.96,1.07,.35,1.44,.64,1.44,1.16s-.49,.89-1.49,.89c-.68,0-1.29-.25-1.64-.46l-.32,.96c.46,.22,1.12,.38,1.93,.38,1.9,0,2.87-.65,2.87-1.91,0-1-.57-1.62-1.78-2.08-1.09-.36-1.49-.6-1.49-1.07s.45-.83,1.3-.83c.71,0,1.16,.21,1.43,.38l.31-.93Z"/><path class="c" d="M60.29,5.97c0-2.09-1.06-2.6-2.15-2.6s-1.84,.37-2.31,.95h-.02c-.27-.59-.9-.95-1.84-.95-1.16,0-1.85,.43-2.21,.86h-.03l-.07-.95h-1.18c.03,.59,.05,1.17,.05,1.96v5h1.35V6.01c0-1.16,.81-1.77,1.53-1.77,.93,0,1.33,.75,1.33,1.74v4.24h1.35V5.88c0-1.02,.75-1.64,1.48-1.64,.97,0,1.38,.78,1.38,1.95v4.03h1.35V5.97Z"/><path class="c" d="M63.1,3.27h-1.35v6.96h1.35V3.27Zm0-2.02c0-.39-.27-.68-.67-.68s-.68,.29-.68,.68,.27,.67,.67,.67,.68-.3,.68-.67Z"/><rect class="b" x="65.03" width="1.35" height="10.23"/><path class="c" d="M69.19,6.08c.08-.79,.58-1.83,1.74-1.83s1.59,1.01,1.58,1.83h-3.31Zm4.09,2.83c-.44,.2-.98,.35-1.81,.35-1.2,0-2.25-.63-2.29-2.3h4.64c.02-.15,.04-.32,.04-.52,0-1.62-.76-3.07-2.81-3.07s-3.21,1.47-3.21,3.39c0,2.21,1.15,3.38,3.4,3.38,1.03,0,1.8-.15,2.28-.33l-.23-.9Z"/><path class="c" d="M82.41,8.98c-.33,.14-.73,.28-1.31,.28-1.22,0-2.11-.93-2.11-2.49,0-1.39,.76-2.52,2.12-2.52,.59,0,1,.15,1.25,.29l.29-.93c-.3-.11-.88-.24-1.55-.24-2.23,0-3.45,1.32-3.45,3.47s1.19,3.3,3.17,3.3c.81,0,1.46-.15,1.79-.27l-.2-.89Z"/><path class="c" d="M87.57,3.27c-.13,.1-.22,.09-.36,.09-.76,0-1.49,.34-1.8,.9h-.04l-.05-1h-1.18c.04,.65,.05,1.31,.05,2.12v4.83h1.35v-3.68c0-1.45,.62-2.3,1.6-2.3,.16,0,.3,.01,.43,.04v-1.01Z"/><path class="c" d="M89.76,6.08c.08-.79,.58-1.83,1.74-1.83s1.59,1.01,1.58,1.83h-3.31Zm4.09,2.83c-.44,.2-.98,.35-1.81,.35-1.2,0-2.25-.63-2.29-2.3h4.64c.02-.15,.04-.32,.04-.52,0-1.62-.76-3.07-2.81-3.07s-3.21,1.47-3.21,3.39c0,2.21,1.15,3.38,3.4,3.38,1.03,0,1.8-.15,2.28-.33l-.23-.9Z"/><path class="c" d="M99.19,7.71c0,.89-.65,1.54-1.43,1.54-.53,0-1.01-.37-1.01-1.2,0-1.34,1.3-1.57,2.43-1.57v1.22Zm1.31-1.92c0-1.3-.52-2.43-2.47-2.43-.92,0-1.7,.22-2.16,.48l.28,.82c.41-.26,1.01-.42,1.62-.42,1.38,0,1.38,.91,1.38,1.37-2.35,0-3.74,.77-3.74,2.61,0,1.13,.69,1.92,1.93,1.92,.86,0,1.52-.33,1.9-.78h.04l.09,.87h1.23c-.09-.49-.1-1.14-.1-1.77v-2.66Z"/><path class="c" d="M102.89,3.37h-.98v.88h.98v3.76c0,.95,.15,1.47,.48,1.74,.28,.25,.73,.39,1.3,.39,.49,0,.88-.05,1.14-.12l-.05-.85c-.17,.06-.35,.09-.64,.09-.62,0-.88-.43-.88-1.33v-3.68h1.65v-.88h-1.65V1.65l-1.35,.45v1.26Z"/><path class="c" d="M111.78,6.74c0,1.38-.72,2.52-1.9,2.52s-1.9-1.14-1.9-2.49c0-1.19,.53-2.52,1.91-2.52s1.88,1.35,1.88,2.49Zm-1.83-3.37c-2.02,0-3.31,1.1-3.31,3.44s1.23,3.33,3.2,3.33c1.73,0,3.29-.86,3.29-3.44,0-2.12-1.12-3.33-3.17-3.33Z"/><path class="c" d="M117.96,3.27c-.13,.1-.22,.09-.36,.09-.76,0-1.49,.34-1.8,.9h-.04l-.05-1h-1.18c.04,.65,.05,1.31,.05,2.12v4.83h1.35v-3.68c0-1.45,.62-2.3,1.6-2.3,.16,0,.3,.01,.43,.04v-1.01Z"/><path class="c" d="M123.16,3.7c-.36-.18-.92-.33-1.73-.33-1.73,0-2.64,.75-2.64,1.87,0,.79,.52,1.48,1.83,1.96,1.07,.35,1.44,.64,1.44,1.16s-.49,.89-1.49,.89c-.68,0-1.3-.25-1.64-.46l-.32,.96c.46,.22,1.12,.38,1.93,.38,1.9,0,2.87-.65,2.87-1.91,0-1-.57-1.62-1.78-2.08-1.09-.36-1.49-.6-1.49-1.07s.45-.83,1.3-.83c.71,0,1.16,.21,1.43,.38l.31-.93Z"/><path class="c" d="M125.77,10.14c.56,0,.91-.38,.91-.9s-.36-.91-.9-.91-.91,.39-.91,.91,.34,.9,.9,.9Z"/></g><g><path class="c" d="M6.2,14.88l.18-1.72H1.07L0,22.27H5.32l.58-5.1h1.55l.53,5.61h5.31l-.53-5.61h1.33v-2.29H6.2Zm14.08,0l.17-1.72h-5.31l-1.07,9.1h5.32l.58-5.1h1.55l.53,5.61h5.31l-.53-5.61h1.33v-2.29h-7.88Zm-8.85,11.59l-2.27,2.72H.53v2.29H7.08L0,40.15H6.38l6.99-8.58,8.42,8.58h6.37l-8.5-8.66h7.97v-2.29H15.54l2.35-2.85,8.68-.21v-2.55l-24.97,.51v2.55l9.83-.17Z"/><path class="c" d="M39.41,17.74l-.53,2.86h-1.59l-.53-2.86h2.66Zm4.79,15.25l-9.04,7.65h4.25l4.79-4.08v-3.57Zm0-2.5v-3.57l-8.15,6.8-.17,3.74,8.33-6.97Zm-7.97,.51l7.97-6.62h-4.25l-3.54,2.88-.18,3.74Zm-3.94-13.26l.53,2.86h-1.59l-1.07,20.04h4.78l.94-17.75h8.85v-2.29h-1.64l.55-2.86h1.08v-1.72h4.8l-.53,2.54h-3.73v15.78h12.62v-15.78h-4.31l.54-2.54h4.3v-2.29h-13.99v1.72h-4.31v-2.29h-4.68v2.29h-4.25v2.29h1.06Zm17.68,12.02h3.27v2.29h-3.27v-2.29Zm0-4.01h3.27v1.72h-3.27v-1.72Zm0-4.16h3.27v1.87h-3.27v-1.87Zm4.32,19.04h4.25l-1.59-5.15h-4.25l1.59,5.15Zm-5.31,0l1.59-5.15h-4.25l-1.59,5.15h4.25Z"/><path class="c" d="M69.41,32.62h1.6v5.73h-1.6v-5.73Zm1.6-6.29v1.14h-3.59l.04-1.14h3.54Zm0-3.44v1.15h-3.41l.09-1.15h3.32Zm-2.01-5.6l2.57,1.02h-5.14l2.57-1.02Zm14.68,23.35c3.08,0,4.63-1.44,4.63-4.33V13.88h-5.14v22.43c0,1.36-.71,2.04-2.12,2.04h-.53v2.29h3.17Zm-1.92-6.58V15.71h-4.67v18.35h4.67Zm-15.42-15.81v2h-3.98l-1.07,18.35h2.66v2.04h12.21v-10.3h-9.08v-.58h9.08v-9.51h-4.68v-2l5.04,2v-4.08l-7.62-3.06-7.62,3.06v4.08l5.04-2Z"/><path class="c" d="M99.05,18.26v-2.55l-7.98-2.04v2.55l7.98,2.04Zm-5.14,6.92v8.67l-2.66,2.66v4.12l2.91-2.96c.48,1.98,1.77,2.96,3.86,2.96h21.22v-2.29h-17.54c-1.77,0-2.65-.86-2.65-2.58v-12.88h-7.8v2.29h2.66Zm19.16,3.43v5.73h-7.01v-5.73h7.01Zm5.14,8.02v-10.3h-17.29v10.3h17.29Zm-13.94-15.32l.44-3.57h2.75v5.15h-7.98v2.29h19.49v-2.29h-6.38v-5.15h5.84v-2.29h-5.84v-2.29h-5.14v2.29h-2.44l.31-2.29h-4.78l-1.07,8.14h4.78Z"/><path class="c" d="M131.29,21.75v-4.01h.53l.27,4.01h-.8Zm9.79-4.01l.4,4.01h-1.11l.27-4.01h.44Zm-13.53,14.67l-.93,.13v-4.5h.93v4.37Zm22.12-13.14l-.53-6.12h-3.72l.53,6.12h3.72Zm-13.71,16.78v-3.44h.94v3.44h-.94Zm.94-9.16v3.44h-.94v-3.44h.94Zm.02-9.16l-.27,4.01h-.79l-.27-4.01h1.33Zm.25,20.61l-1.77,2.29h4.16l3.37-3.87c.23,2.58,1.41,3.87,3.54,3.87h3.18v-2.29h-.53c-1.24,0-1.91-.71-2.03-2.16l-.36-3.85,2.92-3.53v-4.77l-3.32,3.94-.39-3.94h3.72v-2.29h-3.94l-.85-8.58h-4.25l.18,2.04h-2.04v-2.04h-4.68v2.1h-1.61v-1.53h-11.01v2.29h.94v17.73l-.94,.22v2.56l5.61-1.19v5.3h4.2V24.04h10.42l.79,8.22-1.86,2.12v-9.77h-8.42v13.74h4.95Zm-10.56-16.03h.93v3.43h-.93v-3.43Zm.93-6.3v4.01h-.93v-4.01h.93Z"/><polygon class="c" points="158.27 40.69 164.52 26.63 173.15 40.69 179.52 40.69 168.9 23.36 165.97 23.36 170.5 13.17 164.65 13.17 152.43 40.69 158.27 40.69"/></g><path class="b" d="M178.52,10.46c2.78,0,4.93,2.12,4.93,4.83s-2.15,4.88-4.93,4.88-4.93-2.15-4.93-4.88,2.23-4.83,4.93-4.83Zm0,8.75c2.17,0,3.77-1.72,3.77-3.9s-1.62-3.92-3.79-3.92-3.77,1.75-3.77,3.92c0,2.33,1.8,3.9,3.79,3.9Zm-1.86-1.38v-4.91c.45-.08,1.03-.16,1.8-.16,.87,0,2.15,.16,2.15,1.43,0,.58-.45,.98-1.01,1.14v.08c.48,.16,.72,.56,.85,1.19,.16,.74,.27,1.03,.37,1.22h-1.11c-.13-.19-.24-.61-.37-1.22-.19-.77-.61-.77-1.62-.77v1.99h-1.06Zm1.09-2.76c.82,0,1.72,0,1.72-.74,0-.45-.32-.77-1.09-.77-.32,0-.53,.03-.64,.05v1.46Z"/></svg>