<?xml version="1.0" encoding="utf-8"?>
<!-- Generator: Adobe Illustrator 26.5.0, SVG Export Plug-In . SVG Version: 6.00 Build 0)  -->
<svg version="1.1" id="レイヤー_1" xmlns="http://www.w3.org/2000/svg" xmlns:xlink="http://www.w3.org/1999/xlink" x="0px"
	 y="0px" width="287.8px" height="55.5px" viewBox="0 0 287.8 55.5" style="enable-background:new 0 0 287.8 55.5;"
	 xml:space="preserve">
<style type="text/css">
	.st0{fill:#D5EDF7;}
	.st1{fill:#FFFFFF;}
	.st2{fill:#3C3D3D;}
	.st3{fill-rule:evenodd;clip-rule:evenodd;fill:#010000;}
</style>
<g>
	<path class="st0" d="M33.2,3.3c-1.5,0-3.4,0.3-5.5,0.7c-2.2,0.4-4.5,0.8-6.3,0.8c-1.8,0-4.1-0.4-6.3-0.8C13,3.6,11,3.3,9.5,3.3
		c-1,0-2.8,0.7-4.5,2.5c-1.3,1.4-3.3,4.5-3.3,9.8c0,0.7,0,1.5,0.1,2.3c0.6,6.3,2.4,10.9,3.9,14.9C7,35.9,8,38.6,8.4,41.5
		c1.4,10.9,3.1,12.2,3.6,12.3c0.7-0.5,2-4.3,2.9-7c2.2-6.8,3.9-11.3,6.5-11.3c2.6,0,4.2,4.5,6.5,11.3c0.9,2.7,2.1,6.5,2.9,7
		c0.5-0.1,2.3-1.4,3.6-12.3c0.4-2.9,1.4-5.5,2.5-8.6c1.5-4,3.3-8.6,3.9-14.9c0.1-0.8,0.1-1.6,0.1-2.3c0-5.3-2-8.4-3.3-9.8
		C36,3.9,34.2,3.3,33.2,3.3z"/>
	<path class="st1" d="M33.2,3.3c-1.5,0-3.4,0.3-5.5,0.7c-2.2,0.4-4.5,0.8-6.3,0.8c-1.8,0-4.1-0.4-6.3-0.8C13,3.6,11,3.3,9.5,3.3
		c-1,0-2.8,0.7-4.5,2.5c-1.3,1.4-3.3,4.5-3.3,9.8c0,0.7,0,1.5,0.1,2.3c0.6,6.3,2.4,10.9,3.9,14.9C7,35.9,8,38.6,8.4,41.5L37.7,5.8
		C36,3.9,34.2,3.3,33.2,3.3z"/>
</g>
<g>
	<path class="st2" d="M6.6,41.7c1.2,9.7,2.9,13.9,5.5,13.9c1.7,0,2.6-2.7,4.4-8.2c1.2-3.5,3.3-10,4.8-10c1.5,0,3.6,6.5,4.8,10
		c1.8,5.6,2.8,8.2,4.4,8.2c2.6,0,4.3-4.1,5.5-13.9c0.3-2.7,1.3-5.2,2.4-8.2c1.6-4.1,3.4-8.8,4-15.4c0.7-7.5-1.9-11.7-3.6-13.5
		c-2.1-2.3-4.4-3.1-5.8-3.1c-1.6,0-3.7,0.4-5.8,0.7C25.2,2.6,23,3,21.4,3c-1.7,0-3.9-0.4-6-0.8c-2.2-0.4-4.2-0.7-5.8-0.7
		c-1.5,0-3.8,0.8-5.8,3.1c-1.7,1.8-4.3,6-3.6,13.5c0.6,6.5,2.4,11.2,4,15.4C5.3,36.5,6.3,39,6.6,41.7z M1.8,15.6
		c0-5.3,2-8.4,3.3-9.8c1.7-1.9,3.5-2.5,4.5-2.5C11,3.3,13,3.6,15,4c2.2,0.4,4.5,0.8,6.3,0.8c1.8,0,4.1-0.4,6.3-0.8
		c2.1-0.4,4-0.7,5.5-0.7c1,0,2.8,0.7,4.5,2.5c1.3,1.4,3.3,4.5,3.3,9.8c0,0.7,0,1.5-0.1,2.3c-0.6,6.3-2.4,10.9-3.9,14.9
		c-1.2,3.1-2.2,5.7-2.5,8.6c-1.4,10.9-3.1,12.2-3.6,12.3c-0.7-0.5-2-4.3-2.9-7c-2.2-6.8-3.9-11.3-6.5-11.3c-2.6,0-4.2,4.5-6.5,11.3
		c-0.9,2.7-2.1,6.5-2.9,7c-0.5-0.1-2.3-1.4-3.6-12.3C8,38.6,7,35.9,5.8,32.9c-1.5-4-3.3-8.6-3.9-14.9C1.8,17.1,1.8,16.4,1.8,15.6z"
		/>
</g>
<g>
	<path class="st3" d="M58.6,0.6l-1.4,6.3c-0.3,1.9-0.7,3.4-0.9,5h-0.1c-0.2-1.6-0.5-3.2-0.8-4.8l-1.4-6.6h-2l-1.5,6.5
		c-0.4,1.7-0.8,3.4-1,4.8h0c-0.2-1.4-0.5-3.1-0.8-4.8l-1.3-6.6h-2.1l3.1,13.2h2.1l1.6-6c0.4-2.3,0.7-3.6,0.9-5.1H53
		c0.2,1.5,0.4,2.9,0.8,4.6l1.4,6.8h2.1l3.4-13.2L58.6,0.6z"/>
	<path class="st3" d="M63.2,8.3c0.1-1.1,0.8-2.5,2.4-2.5c1.7,0,2.2,1.4,2.2,2.5H63.2z M68.8,12.2c-0.6,0.3-1.3,0.5-2.5,0.5
		c-1.6,0-3.1-0.9-3.1-3.1h6.3c0-0.2,0.1-0.4,0.1-0.7c0-2.2-1-4.2-3.8-4.2c-2.9,0-4.4,2-4.4,4.6c0,3,1.6,4.6,4.6,4.6
		c1.4,0,2.5-0.2,3.1-0.4L68.8,12.2z"/>
	<path class="st3" d="M79.9,10.5c0,1.2-0.9,2.1-1.9,2.1c-0.7,0-1.4-0.5-1.4-1.6c0-1.8,1.8-2.1,3.3-2.1V10.5z M81.7,7.9
		c0-1.8-0.7-3.3-3.4-3.3c-1.3,0-2.3,0.3-2.9,0.7l0.4,1.1C76.3,6,77.1,5.8,78,5.8c1.9,0,1.9,1.2,1.9,1.9c-3.2,0-5.1,1-5.1,3.6
		c0,1.5,0.9,2.6,2.6,2.6c1.2,0,2.1-0.5,2.6-1.1H80l0.1,1.2h1.7c-0.1-0.7-0.1-1.6-0.1-2.4V7.9z"/>
	<path class="st3" d="M88.9,4.5c-0.2,0.1-0.3,0.1-0.5,0.1c-1,0-2,0.5-2.5,1.2h-0.1l-0.1-1.4h-1.6c0.1,0.9,0.1,1.8,0.1,2.9V14h1.8v-5
		c0-2,0.8-3.1,2.2-3.1c0.2,0,0.4,0,0.6,0.1V4.5z"/>
	<path class="st3" d="M91.9,8.3c0.1-1.1,0.8-2.5,2.4-2.5c1.7,0,2.2,1.4,2.2,2.5H91.9z M97.5,12.2c-0.6,0.3-1.3,0.5-2.5,0.5
		c-1.6,0-3.1-0.9-3.1-3.1h6.3c0-0.2,0.1-0.4,0.1-0.7c0-2.2-1-4.2-3.8-4.2c-2.9,0-4.4,2-4.4,4.6c0,3,1.6,4.6,4.6,4.6
		c1.4,0,2.5-0.2,3.1-0.4L97.5,12.2z"/>
	<path class="st3" d="M109.4,5c-0.5-0.2-1.3-0.5-2.4-0.5c-2.4,0-3.6,1-3.6,2.6c0,1.1,0.7,2,2.5,2.7c1.5,0.5,2,0.9,2,1.6
		c0,0.7-0.7,1.2-2,1.2c-0.9,0-1.8-0.3-2.2-0.6l-0.4,1.3c0.6,0.3,1.5,0.5,2.6,0.5c2.6,0,3.9-0.9,3.9-2.6c0-1.4-0.8-2.2-2.4-2.8
		c-1.5-0.5-2-0.8-2-1.5c0-0.6,0.6-1.1,1.8-1.1c1,0,1.6,0.3,1.9,0.5L109.4,5z"/>
	<path class="st3" d="M125.1,8.1c0-2.8-1.4-3.6-2.9-3.6c-1.5,0-2.5,0.5-3.2,1.3h0c-0.4-0.8-1.2-1.3-2.5-1.3c-1.6,0-2.5,0.6-3,1.2h0
		l-0.1-1.3h-1.6c0,0.8,0.1,1.6,0.1,2.7V14h1.8V8.2c0-1.6,1.1-2.4,2.1-2.4c1.3,0,1.8,1,1.8,2.4V14h1.8V8c0-1.4,1-2.2,2-2.2
		c1.3,0,1.9,1.1,1.9,2.7V14h1.8V8.1z"/>
	<path class="st3" d="M128.9,4.5h-1.8V14h1.8V4.5z M128.9,1.7c0-0.5-0.4-0.9-0.9-0.9c-0.5,0-0.9,0.4-0.9,0.9c0,0.5,0.4,0.9,0.9,0.9
		C128.6,2.6,128.9,2.2,128.9,1.7z"/>
	<rect x="131.5" class="st3" width="1.8" height="14"/>
	<path class="st3" d="M137.2,8.3c0.1-1.1,0.8-2.5,2.4-2.5c1.7,0,2.2,1.4,2.2,2.5H137.2z M142.8,12.2c-0.6,0.3-1.3,0.5-2.5,0.5
		c-1.6,0-3.1-0.9-3.1-3.1h6.3c0-0.2,0.1-0.4,0.1-0.7c0-2.2-1-4.2-3.8-4.2c-2.9,0-4.4,2-4.4,4.6c0,3,1.6,4.6,4.6,4.6
		c1.4,0,2.5-0.2,3.1-0.4L142.8,12.2z"/>
	<path class="st3" d="M155.3,12.3c-0.4,0.2-1,0.4-1.8,0.4c-1.7,0-2.9-1.3-2.9-3.4c0-1.9,1-3.4,2.9-3.4c0.8,0,1.4,0.2,1.7,0.4
		l0.4-1.3c-0.4-0.2-1.2-0.3-2.1-0.3c-3,0-4.7,1.8-4.7,4.7c0,3,1.6,4.5,4.3,4.5c1.1,0,2-0.2,2.4-0.4L155.3,12.3z"/>
	<path class="st3" d="M162.3,4.5c-0.2,0.1-0.3,0.1-0.5,0.1c-1,0-2,0.5-2.5,1.2h-0.1l-0.1-1.4h-1.6c0.1,0.9,0.1,1.8,0.1,2.9V14h1.8
		v-5c0-2,0.8-3.1,2.2-3.1c0.2,0,0.4,0,0.6,0.1V4.5z"/>
	<path class="st3" d="M165.3,8.3c0.1-1.1,0.8-2.5,2.4-2.5c1.7,0,2.2,1.4,2.2,2.5H165.3z M170.9,12.2c-0.6,0.3-1.3,0.5-2.5,0.5
		c-1.6,0-3.1-0.9-3.1-3.1h6.3c0-0.2,0.1-0.4,0.1-0.7c0-2.2-1-4.2-3.8-4.2c-2.9,0-4.4,2-4.4,4.6c0,3,1.6,4.6,4.6,4.6
		c1.4,0,2.5-0.2,3.1-0.4L170.9,12.2z"/>
	<path class="st3" d="M178.2,10.5c0,1.2-0.9,2.1-1.9,2.1c-0.7,0-1.4-0.5-1.4-1.6c0-1.8,1.8-2.1,3.3-2.1V10.5z M180,7.9
		c0-1.8-0.7-3.3-3.4-3.3c-1.3,0-2.3,0.3-2.9,0.7l0.4,1.1c0.6-0.4,1.4-0.6,2.2-0.6c1.9,0,1.9,1.2,1.9,1.9c-3.2,0-5.1,1-5.1,3.6
		c0,1.5,0.9,2.6,2.6,2.6c1.2,0,2.1-0.5,2.6-1.1h0.1l0.1,1.2h1.7c-0.1-0.7-0.1-1.6-0.1-2.4V7.9z"/>
	<path class="st3" d="M183.2,4.6h-1.3v1.2h1.3v5.1c0,1.3,0.2,2,0.7,2.4c0.4,0.3,1,0.5,1.8,0.5c0.7,0,1.2-0.1,1.6-0.2l-0.1-1.2
		c-0.2,0.1-0.5,0.1-0.9,0.1c-0.8,0-1.2-0.6-1.2-1.8v-5h2.3V4.6h-2.3V2.3l-1.8,0.6V4.6z"/>
	<path class="st3" d="M195.3,9.2c0,1.9-1,3.4-2.6,3.4c-1.6,0-2.6-1.6-2.6-3.4c0-1.6,0.7-3.4,2.6-3.4C194.6,5.8,195.3,7.6,195.3,9.2z
		 M192.9,4.6c-2.8,0-4.5,1.5-4.5,4.7c0,3,1.7,4.5,4.4,4.5c2.4,0,4.5-1.2,4.5-4.7C197.2,6.3,195.7,4.6,192.9,4.6z"/>
	<path class="st3" d="M203.8,4.5c-0.2,0.1-0.3,0.1-0.5,0.1c-1,0-2,0.5-2.5,1.2h-0.1l-0.1-1.4h-1.6c0.1,0.9,0.1,1.8,0.1,2.9V14h1.8
		v-5c0-2,0.8-3.1,2.2-3.1c0.2,0,0.4,0,0.6,0.1V4.5z"/>
	<path class="st3" d="M210.9,5c-0.5-0.2-1.3-0.5-2.4-0.5c-2.4,0-3.6,1-3.6,2.6c0,1.1,0.7,2,2.5,2.7c1.5,0.5,2,0.9,2,1.6
		c0,0.7-0.7,1.2-2,1.2c-0.9,0-1.8-0.3-2.2-0.6l-0.4,1.3c0.6,0.3,1.5,0.5,2.6,0.5c2.6,0,3.9-0.9,3.9-2.6c0-1.4-0.8-2.2-2.4-2.8
		c-1.5-0.5-2-0.8-2-1.5c0-0.6,0.6-1.1,1.8-1.1c1,0,1.6,0.3,1.9,0.5L210.9,5z"/>
	<path class="st3" d="M214.4,13.8c0.8,0,1.2-0.5,1.2-1.2c0-0.7-0.5-1.2-1.2-1.2c-0.7,0-1.2,0.5-1.2,1.2
		C213.2,13.3,213.7,13.8,214.4,13.8z"/>
</g>
<g>
	<path class="st3" d="M51.2,20.3l0.2-2.3h-7.2l-1.5,12.4H50l0.8-7h2.1l0.7,7.7h7.2l-0.7-7.7H62v-3.1H51.2z M70.5,20.3l0.2-2.3h-7.2
		L62,30.4h7.3l0.8-7h2.1l0.7,7.7h7.2l-0.7-7.7h1.8v-3.1H70.5z M58.4,36.1l-3.1,3.7H43.5V43h8.9l-9.7,11.8h8.7L61,43.1l11.5,11.7h8.7
		L69.6,43h10.9v-3.1H64l3.2-3.9l11.8-0.3v-3.5L45,32.9v3.5L58.4,36.1z"/>
	<path class="st3" d="M96.6,24.2l-0.7,3.9h-2.2L93,24.2H96.6z M103.1,45L90.8,55.5h5.8l6.5-5.6V45z M103.1,41.6v-4.9L92,46l-0.2,5.1
		L103.1,41.6z M92.2,42.3l10.9-9h-5.8l-4.8,3.9L92.2,42.3z M86.9,24.2l0.7,3.9h-2.2L84,55.5h6.5l1.3-24.2h12.1v-3.1h-2.2l0.8-3.9
		h1.5v-2.3h6.6l-0.7,3.5h-5.1v21.5h17.2V25.3H116l0.7-3.5h5.9v-3.1h-19.1v2.3h-5.9V18h-6.4v3.1h-5.8v3.1H86.9z M111,40.6h4.5v3.1
		H111V40.6z M111,35.2h4.5v2.3H111V35.2z M111,29.5h4.5V32H111V29.5z M116.9,55.5h5.8l-2.2-7h-5.8L116.9,55.5z M109.6,55.5l2.2-7
		H106l-2.2,7H109.6z"/>
	<path class="st3" d="M137.5,44.5h2.2v7.8h-2.2V44.5z M139.7,35.9v1.6h-4.9l0.1-1.6H139.7z M139.7,31.2v1.6H135l0.1-1.6H139.7z
		 M137,23.6l3.5,1.4h-7L137,23.6z M157,55.5c4.2,0,6.3-2,6.3-5.9V18.9h-7v30.6c0,1.9-1,2.8-2.9,2.8h-0.7v3.1H157z M154.4,46.5v-25
		H148v25H154.4z M133.3,24.9v2.7h-5.4l-1.5,25h3.6v2.8h16.7V41.4h-12.4v-0.8h12.4v-13h-6.4v-2.7l6.9,2.7v-5.6l-10.4-4.2l-10.4,4.2
		v5.6L133.3,24.9z"/>
	<path class="st3" d="M178,24.9v-3.5l-10.9-2.8v3.5L178,24.9z M171,34.4v11.8l-3.6,3.6v5.6l4-4c0.7,2.7,2.4,4,5.3,4h29v-3.1h-23.9
		c-2.4,0-3.6-1.2-3.6-3.5V31.2h-10.6v3.1H171z M197.1,39.1v7.8h-9.6v-7.8H197.1z M204.1,50V35.9h-23.6V50H204.1z M185.1,29.1
		l0.6-4.9h3.8v7h-10.9v3.1h26.6v-3.1h-8.7v-7h8v-3.1h-8V18h-7v3.1h-3.3l0.4-3.1H180l-1.5,11.1H185.1z"/>
	<path class="st3" d="M222,29.7v-5.5h0.7l0.4,5.5H222z M235.4,24.2l0.5,5.5h-1.5l0.4-5.5H235.4z M216.9,44.2l-1.3,0.2v-6.1h1.3V44.2
		z M247.1,26.3l-0.7-8.3h-5.1l0.7,8.3H247.1z M228.4,49.2v-4.7h1.3v4.7H228.4z M229.6,36.7v4.7h-1.3v-4.7H229.6z M229.7,24.2
		l-0.4,5.5h-1.1l-0.4-5.5H229.7z M230,52.3l-2.4,3.1h5.7l4.6-5.3c0.3,3.5,1.9,5.3,4.8,5.3h4.3v-3.1h-0.7c-1.7,0-2.6-1-2.8-3
		l-0.5-5.3l4-4.8v-6.5l-4.5,5.4l-0.5-5.4h5.1v-3.1h-5.4L240.5,18h-5.8l0.2,2.8h-2.8V18h-6.4v2.9h-2.2v-2.1h-15v3.1h1.3v24.2
		l-1.3,0.3v3.5l7.7-1.6v7.2h5.7V32.8h14.2l1.1,11.2l-2.5,2.9V33.6h-11.5v18.8H230z M215.6,30.5h1.3v4.7h-1.3V30.5z M216.9,21.9v5.5
		h-1.3v-5.5H216.9z"/>
	<polygon class="st3" points="258.8,55.5 267.3,36.4 279.1,55.5 287.8,55.5 273.3,31.9 269.3,31.9 275.5,18 267.5,18 250.8,55.5 	
		"/>
</g>
</svg>
