<?xml version="1.0" encoding="UTF-8"?><svg id="a" xmlns="http://www.w3.org/2000/svg" viewBox="0 0 198.11 42.99"><defs><style>.b,.c{fill:#231815;}.c{fill-rule:evenodd;}</style></defs><g><path class="c" d="M12.25,.49l-1.08,4.87c-.27,1.46-.5,2.66-.68,3.91h-.04c-.14-1.22-.39-2.45-.64-3.7L8.76,.49h-1.54l-1.15,5.04c-.29,1.35-.58,2.61-.74,3.75h-.02c-.17-1.1-.4-2.41-.65-3.72L3.65,.49h-1.63l2.37,10.2h1.62l1.21-4.68c.3-1.75,.53-2.82,.69-3.98h.04c.12,1.16,.32,2.26,.58,3.53l1.1,5.25h1.6L13.81,.61l-1.57-.11Z"/><path class="c" d="M15.81,6.42c.08-.83,.61-1.94,1.84-1.94s1.68,1.07,1.66,1.94h-3.5Zm4.32,2.99c-.46,.21-1.03,.37-1.91,.37-1.26,0-2.38-.67-2.42-2.43h4.9c.02-.16,.04-.34,.04-.55,0-1.71-.8-3.25-2.97-3.25s-3.39,1.56-3.39,3.58c0,2.33,1.22,3.57,3.6,3.57,1.09,0,1.9-.16,2.41-.35l-.25-.95Z"/><path class="c" d="M28.73,8.15c0,.94-.68,1.63-1.51,1.63-.56,0-1.06-.39-1.06-1.27,0-1.41,1.38-1.65,2.57-1.65v1.29Zm1.38-2.03c0-1.38-.55-2.56-2.61-2.56-.97,0-1.8,.23-2.28,.5l.3,.87c.43-.27,1.07-.44,1.71-.44,1.46,0,1.46,.96,1.46,1.44-2.48,0-3.95,.81-3.95,2.76,0,1.2,.73,2.03,2.04,2.03,.9,0,1.61-.35,2.01-.82h.04l.09,.92h1.29c-.09-.51-.1-1.2-.1-1.87v-2.82Z"/><path class="c" d="M35.71,3.46c-.13,.11-.24,.1-.39,.1-.8,0-1.57,.36-1.9,.95h-.04l-.05-1.05h-1.24c.04,.68,.05,1.39,.05,2.24v5.11h1.42v-3.89c0-1.54,.65-2.43,1.69-2.43,.17,0,.32,.01,.45,.04v-1.07Z"/><path class="c" d="M38.03,6.42c.08-.83,.61-1.94,1.84-1.94s1.68,1.07,1.66,1.94h-3.5Zm4.32,2.99c-.46,.21-1.03,.37-1.91,.37-1.26,0-2.38-.67-2.42-2.43h4.9c.02-.16,.04-.34,.04-.55,0-1.71-.8-3.25-2.97-3.25s-3.39,1.56-3.39,3.58c0,2.33,1.22,3.57,3.6,3.57,1.09,0,1.9-.16,2.41-.35l-.25-.95Z"/><path class="c" d="M51.59,3.91c-.38-.19-.97-.35-1.83-.35-1.83,0-2.79,.8-2.79,1.98,0,.84,.55,1.56,1.94,2.07,1.13,.37,1.52,.67,1.52,1.22s-.51,.94-1.58,.94c-.72,0-1.37-.26-1.73-.48l-.34,1.01c.48,.24,1.19,.4,2.03,.4,2.01,0,3.03-.68,3.03-2.02,0-1.05-.61-1.71-1.88-2.19-1.15-.38-1.58-.63-1.58-1.13s.48-.88,1.37-.88c.75,0,1.22,.22,1.51,.4l.33-.98Z"/><path class="c" d="M63.7,6.31c0-2.2-1.12-2.75-2.27-2.75s-1.95,.39-2.44,1.01h-.02c-.29-.63-.95-1.01-1.94-1.01-1.22,0-1.96,.46-2.33,.91h-.03l-.08-1.01h-1.25c.03,.63,.05,1.24,.05,2.07v5.28h1.42V6.35c0-1.23,.86-1.87,1.62-1.87,.98,0,1.4,.8,1.4,1.84v4.48h1.42V6.21c0-1.08,.79-1.73,1.56-1.73,1.02,0,1.46,.82,1.46,2.06v4.26h1.42V6.31Z"/><path class="c" d="M66.66,3.46h-1.42v7.35h1.42V3.46Zm0-2.13c0-.41-.29-.72-.71-.72s-.72,.31-.72,.72,.29,.71,.71,.71,.72-.32,.72-.71Z"/><rect class="b" x="68.7" width="1.42" height="10.81"/><path class="c" d="M73.1,6.42c.08-.83,.61-1.94,1.84-1.94s1.68,1.07,1.66,1.94h-3.5Zm4.32,2.99c-.46,.21-1.03,.37-1.91,.37-1.26,0-2.38-.67-2.42-2.43h4.9c.02-.16,.04-.34,.04-.55,0-1.71-.8-3.25-2.97-3.25s-3.39,1.56-3.39,3.58c0,2.33,1.22,3.57,3.6,3.57,1.09,0,1.9-.16,2.41-.35l-.25-.95Z"/><path class="c" d="M87.07,9.48c-.35,.15-.77,.3-1.38,.3-1.28,0-2.23-.98-2.23-2.63,0-1.47,.8-2.67,2.24-2.67,.63,0,1.05,.16,1.32,.3l.31-.98c-.32-.12-.93-.25-1.64-.25-2.35,0-3.65,1.39-3.65,3.67s1.25,3.49,3.35,3.49c.85,0,1.55-.16,1.89-.28l-.21-.94Z"/><path class="c" d="M92.51,3.46c-.13,.11-.24,.1-.39,.1-.8,0-1.57,.36-1.9,.95h-.04l-.05-1.05h-1.24c.04,.68,.05,1.39,.05,2.24v5.11h1.42v-3.89c0-1.54,.65-2.43,1.69-2.43,.17,0,.32,.01,.45,.04v-1.07Z"/><path class="c" d="M94.83,6.42c.08-.83,.61-1.94,1.84-1.94s1.68,1.07,1.66,1.94h-3.5Zm4.32,2.99c-.46,.21-1.03,.37-1.91,.37-1.26,0-2.38-.67-2.42-2.43h4.9c.03-.16,.04-.34,.04-.55,0-1.71-.8-3.25-2.97-3.25s-3.39,1.56-3.39,3.58c0,2.33,1.22,3.57,3.6,3.57,1.09,0,1.9-.16,2.41-.35l-.25-.95Z"/><path class="c" d="M104.79,8.15c0,.94-.68,1.63-1.51,1.63-.56,0-1.06-.39-1.06-1.27,0-1.41,1.38-1.65,2.57-1.65v1.29Zm1.38-2.03c0-1.38-.55-2.56-2.61-2.56-.97,0-1.8,.23-2.28,.5l.3,.87c.43-.27,1.07-.44,1.71-.44,1.46,0,1.46,.96,1.46,1.44-2.48,0-3.95,.81-3.95,2.76,0,1.2,.73,2.03,2.04,2.03,.9,0,1.61-.35,2.01-.82h.04l.09,.92h1.29c-.09-.51-.1-1.2-.1-1.87v-2.82Z"/><path class="c" d="M108.7,3.56h-1.04v.93h1.04v3.97c0,1,.16,1.55,.51,1.84,.3,.26,.78,.41,1.38,.41,.52,0,.93-.05,1.2-.13l-.05-.9c-.18,.06-.37,.1-.68,.1-.66,0-.93-.46-.93-1.41v-3.89h1.74v-.93h-1.74V1.74l-1.42,.48v1.33Z"/><path class="c" d="M118.09,7.12c0,1.46-.77,2.66-2.01,2.66s-2.01-1.21-2.01-2.63c0-1.26,.56-2.66,2.02-2.66s1.99,1.43,1.99,2.63Zm-1.93-3.56c-2.14,0-3.5,1.17-3.5,3.63s1.3,3.52,3.38,3.52c1.83,0,3.47-.91,3.47-3.63,0-2.24-1.18-3.52-3.35-3.52Z"/><path class="c" d="M124.62,3.46c-.13,.11-.24,.1-.38,.1-.8,0-1.57,.36-1.9,.95h-.04l-.05-1.05h-1.24c.04,.68,.05,1.39,.05,2.24v5.11h1.42v-3.89c0-1.54,.65-2.43,1.69-2.43,.17,0,.32,.01,.45,.04v-1.07Z"/><path class="c" d="M130.12,3.91c-.38-.19-.97-.35-1.83-.35-1.83,0-2.79,.8-2.79,1.98,0,.84,.55,1.56,1.94,2.07,1.13,.37,1.52,.67,1.52,1.22s-.51,.94-1.58,.94c-.72,0-1.37-.26-1.73-.48l-.34,1.01c.48,.24,1.19,.4,2.03,.4,2.01,0,3.03-.68,3.03-2.02,0-1.05-.61-1.71-1.88-2.19-1.15-.38-1.58-.63-1.58-1.13s.48-.88,1.37-.88c.75,0,1.22,.22,1.51,.4l.33-.98Z"/><path class="c" d="M132.87,10.71c.59,0,.96-.4,.96-.95s-.38-.96-.95-.96-.96,.41-.96,.96,.36,.95,.95,.95Z"/></g><g><path class="c" d="M6.55,15.72l.19-1.81H1.13L0,23.52H5.62l.61-5.38h1.63l.56,5.92h5.61l-.56-5.92h1.41v-2.42H6.55Zm14.88,0l.18-1.81h-5.61l-1.13,9.62h5.62l.61-5.38h1.63l.56,5.92h5.61l-.56-5.92h1.4v-2.42h-8.32Zm-9.35,12.24l-2.4,2.87H.56v2.42H7.48L0,42.41H6.74l7.39-9.07,8.89,9.07h6.73l-8.98-9.15h8.42v-2.42h-12.77l2.48-3.01,9.17-.22v-2.7l-26.38,.54v2.7l10.39-.18Z"/><path class="c" d="M41.64,18.74l-.56,3.02h-1.68l-.56-3.02h2.81Zm5.06,16.11l-9.55,8.08h4.49l5.06-4.31v-3.77Zm0-2.64v-3.77l-8.61,7.18-.18,3.95,8.8-7.36Zm-8.42,.54l8.42-7h-4.49l-3.74,3.05-.19,3.95Zm-4.16-14.01l.56,3.02h-1.68l-1.13,21.17h5.05l1-18.75h9.35v-2.42h-1.73l.58-3.02h1.15v-1.81h5.07l-.56,2.68h-3.94v16.67h13.34V19.61h-4.55l.57-2.68h4.54v-2.42h-14.78v1.81h-4.55v-2.42h-4.94v2.42h-4.49v2.42h1.12Zm18.68,12.7h3.46v2.42h-3.46v-2.42Zm0-4.23h3.46v1.81h-3.46v-1.81Zm0-4.39h3.46v1.97h-3.46v-1.97Zm4.56,20.12h4.49l-1.68-5.44h-4.49l1.68,5.44Zm-5.61,0l1.68-5.44h-4.49l-1.68,5.44h4.49Z"/><path class="c" d="M73.33,34.46h1.69v6.05h-1.69v-6.05Zm1.69-6.65v1.2h-3.79l.04-1.2h3.74Zm0-3.63v1.21h-3.61l.09-1.21h3.51Zm-2.12-5.92l2.72,1.08h-5.43l2.71-1.08Zm15.5,24.67c3.26,0,4.89-1.52,4.89-4.57V14.66h-5.43v23.7c0,1.43-.75,2.15-2.24,2.15h-.56v2.42h3.35Zm-2.03-6.95V16.6h-4.93v19.39h4.93Zm-16.29-16.7v2.11h-4.2l-1.13,19.39h2.81v2.16h12.9v-10.89h-9.59v-.61h9.59v-10.05h-4.94v-2.11l5.33,2.11v-4.31l-8.05-3.23-8.05,3.23v4.31l5.33-2.11Z"/><path class="c" d="M104.64,19.29v-2.69l-8.43-2.15v2.69l8.43,2.15Zm-5.43,7.31v9.16l-2.81,2.81v4.36l3.08-3.13c.51,2.09,1.87,3.13,4.07,3.13h22.41v-2.42h-18.53c-1.87,0-2.8-.91-2.8-2.72v-13.61h-8.24v2.42h2.81Zm20.24,3.63v6.05h-7.4v-6.05h7.4Zm5.43,8.47v-10.89h-18.27v10.89h18.27Zm-14.73-16.19l.47-3.77h2.9v5.44h-8.43v2.42h20.59v-2.42h-6.74v-5.44h6.17v-2.42h-6.17v-2.42h-5.43v2.42h-2.58l.33-2.42h-5.05l-1.13,8.6h5.05Z"/><path class="c" d="M138.71,22.98v-4.23h.56l.28,4.23h-.85Zm10.35-4.23l.42,4.23h-1.18l.28-4.23h.47Zm-14.3,15.5l-.98,.13v-4.75h.98v4.62Zm23.37-13.88l-.56-6.46h-3.93l.56,6.46h3.93Zm-14.48,17.73v-3.63h.99v3.63h-.99Zm.99-9.68v3.63h-.99v-3.63h.99Zm.03-9.68l-.28,4.23h-.84l-.29-4.23h1.41Zm.27,21.77l-1.87,2.42h4.39l3.56-4.08c.25,2.72,1.49,4.08,3.74,4.08h3.36v-2.42h-.56c-1.31,0-2.02-.76-2.14-2.29l-.38-4.07,3.09-3.73v-5.04l-3.51,4.16-.42-4.16h3.93v-2.42h-4.16l-.89-9.07h-4.49l.19,2.15h-2.15v-2.15h-4.94v2.22h-1.7v-1.62h-11.63v2.42h.99v18.73l-.99,.23v2.7l5.93-1.26v5.6h4.44V25.4h11l.84,8.68-1.97,2.24v-10.32h-8.89v14.52h5.23Zm-11.15-16.93h.98v3.63h-.98v-3.63Zm.98-6.65v4.23h-.98v-4.23h.98Z"/><polygon class="c" points="167.21 42.99 173.81 28.14 182.92 42.99 189.66 42.99 178.44 24.68 175.35 24.68 180.12 13.91 173.95 13.91 161.04 42.99 167.21 42.99"/></g><path class="b" d="M192.9,11.05c2.94,0,5.21,2.24,5.21,5.1s-2.27,5.15-5.21,5.15-5.21-2.27-5.21-5.15,2.35-5.1,5.21-5.1Zm0,9.24c2.3,0,3.98-1.82,3.98-4.12s-1.71-4.15-4.01-4.15-3.98,1.85-3.98,4.15c0,2.47,1.9,4.12,4.01,4.12Zm-1.96-1.46v-5.18c.48-.08,1.09-.17,1.91-.17,.92,0,2.27,.17,2.27,1.51,0,.62-.48,1.04-1.06,1.2v.08c.5,.17,.76,.59,.9,1.26,.17,.78,.28,1.09,.39,1.29h-1.18c-.14-.2-.25-.64-.39-1.29-.2-.81-.64-.81-1.71-.81v2.1h-1.12Zm1.15-2.91c.87,0,1.82,0,1.82-.78,0-.48-.34-.81-1.15-.81-.34,0-.56,.03-.67,.06v1.54Z"/></svg>