<?xml version="1.0" encoding="UTF-8"?><svg id="a" xmlns="http://www.w3.org/2000/svg" viewBox="0 0 200 68"><defs><style>.b,.c{fill:#fff;}.c{fill-rule:evenodd;}</style></defs><g><path class="c" d="M14.53,15.2l-1.07,4.24c-.26,1.27-.5,2.32-.67,3.4h-.04c-.14-1.07-.38-2.13-.63-3.23l-1.04-4.42h-1.52l-1.14,4.39c-.29,1.18-.57,2.27-.73,3.27h-.02c-.17-.96-.39-2.1-.64-3.24l-.99-4.42h-1.61l2.34,8.89h1.59l1.19-4.08c.3-1.52,.52-2.46,.68-3.47h.04c.12,1.01,.31,1.97,.58,3.07l1.08,4.57h1.58l2.56-8.89-1.54-.1Z"/><path class="c" d="M18.04,20.36c.08-.73,.6-1.69,1.81-1.69s1.66,.93,1.64,1.69h-3.46Zm4.26,2.6c-.46,.19-1.02,.32-1.89,.32-1.25,0-2.34-.58-2.39-2.12h4.83c.02-.14,.04-.29,.04-.48,0-1.49-.79-2.83-2.93-2.83s-3.35,1.36-3.35,3.12c0,2.03,1.2,3.11,3.55,3.11,1.07,0,1.88-.14,2.37-.3l-.24-.83Z"/><path class="c" d="M30.79,21.87c0,.82-.67,1.42-1.49,1.42-.56,0-1.05-.34-1.05-1.11,0-1.23,1.36-1.44,2.53-1.44v1.13Zm1.36-1.77c0-1.2-.55-2.23-2.58-2.23-.96,0-1.77,.2-2.25,.44l.29,.76c.42-.24,1.06-.39,1.69-.39,1.44,0,1.44,.84,1.44,1.26-2.45,0-3.9,.71-3.9,2.4,0,1.04,.72,1.76,2.01,1.76,.89,0,1.59-.31,1.98-.71h.04l.09,.8h1.28c-.09-.45-.1-1.05-.1-1.63v-2.45Z"/><path class="c" d="M37.68,17.78c-.13,.09-.23,.09-.38,.09-.79,0-1.55,.31-1.87,.83h-.04l-.05-.92h-1.23c.04,.59,.05,1.21,.05,1.95v4.45h1.4v-3.39c0-1.34,.64-2.12,1.67-2.12,.17,0,.31,.01,.44,.03v-.93Z"/><path class="c" d="M39.97,20.36c.08-.73,.6-1.69,1.81-1.69s1.66,.93,1.64,1.69h-3.46Zm4.26,2.6c-.46,.19-1.02,.32-1.89,.32-1.25,0-2.34-.58-2.39-2.12h4.83c.02-.14,.04-.29,.04-.48,0-1.49-.79-2.83-2.93-2.83s-3.35,1.36-3.35,3.12c0,2.03,1.2,3.11,3.55,3.11,1.07,0,1.88-.14,2.37-.3l-.24-.83Z"/><path class="c" d="M53.34,18.17c-.38-.16-.96-.31-1.81-.31-1.81,0-2.75,.69-2.75,1.73,0,.73,.55,1.36,1.91,1.81,1.12,.32,1.5,.59,1.5,1.07s-.51,.82-1.55,.82c-.71,0-1.35-.23-1.71-.42l-.34,.88c.48,.21,1.17,.35,2.01,.35,1.98,0,2.99-.59,2.99-1.76,0-.92-.6-1.49-1.86-1.91-1.14-.33-1.55-.55-1.55-.99s.47-.77,1.35-.77c.74,0,1.21,.19,1.49,.35l.32-.86Z"/><path class="c" d="M65.29,20.26c0-1.92-1.11-2.4-2.24-2.4s-1.92,.34-2.41,.88h-.02c-.28-.55-.94-.88-1.92-.88-1.21,0-1.93,.4-2.3,.79h-.03l-.08-.88h-1.23c.03,.55,.05,1.08,.05,1.8v4.6h1.4v-3.88c0-1.07,.85-1.63,1.6-1.63,.96,0,1.38,.69,1.38,1.6v3.91h1.4v-4c0-.94,.78-1.51,1.54-1.51,1.01,0,1.44,.72,1.44,1.8v3.71h1.4v-3.92Z"/><path class="c" d="M68.22,17.78h-1.4v6.4h1.4v-6.4Zm0-1.86c0-.36-.28-.62-.7-.62s-.71,.27-.71,.62,.28,.62,.7,.62,.71-.28,.71-.62Z"/><rect class="b" x="70.22" y="14.77" width="1.4" height="9.42"/><path class="c" d="M74.57,20.36c.08-.73,.6-1.69,1.81-1.69s1.66,.93,1.64,1.69h-3.46Zm4.26,2.6c-.46,.19-1.02,.32-1.89,.32-1.25,0-2.34-.58-2.39-2.12h4.83c.02-.14,.04-.29,.04-.48,0-1.49-.79-2.83-2.93-2.83s-3.35,1.36-3.35,3.12c0,2.03,1.2,3.11,3.55,3.11,1.07,0,1.88-.14,2.37-.3l-.24-.83Z"/><path class="c" d="M88.35,23.03c-.34,.13-.76,.26-1.36,.26-1.27,0-2.2-.85-2.2-2.29,0-1.28,.79-2.32,2.21-2.32,.62,0,1.04,.14,1.3,.26l.31-.85c-.32-.1-.92-.22-1.62-.22-2.32,0-3.6,1.21-3.6,3.19s1.24,3.04,3.31,3.04c.84,0,1.53-.14,1.87-.25l-.21-.82Z"/><path class="c" d="M93.72,17.78c-.13,.09-.23,.09-.38,.09-.79,0-1.55,.31-1.87,.83h-.04l-.05-.92h-1.23c.04,.59,.05,1.21,.05,1.95v4.45h1.4v-3.39c0-1.34,.64-2.12,1.67-2.12,.17,0,.31,.01,.44,.03v-.93Z"/><path class="c" d="M96.01,20.36c.08-.73,.6-1.69,1.81-1.69s1.66,.93,1.64,1.69h-3.46Zm4.26,2.6c-.46,.19-1.02,.32-1.89,.32-1.25,0-2.34-.58-2.39-2.12h4.83c.02-.14,.04-.29,.04-.48,0-1.49-.79-2.83-2.93-2.83s-3.35,1.36-3.35,3.12c0,2.03,1.2,3.11,3.55,3.11,1.07,0,1.88-.14,2.37-.3l-.24-.83Z"/><path class="c" d="M105.84,21.87c0,.82-.67,1.42-1.49,1.42-.56,0-1.05-.34-1.05-1.11,0-1.23,1.36-1.44,2.53-1.44v1.13Zm1.36-1.77c0-1.2-.55-2.23-2.58-2.23-.96,0-1.77,.2-2.25,.44l.29,.76c.42-.24,1.06-.39,1.69-.39,1.44,0,1.44,.84,1.44,1.26-2.45,0-3.9,.71-3.9,2.4,0,1.04,.72,1.76,2.01,1.76,.89,0,1.59-.31,1.98-.71h.04l.09,.8h1.28c-.09-.45-.1-1.05-.1-1.63v-2.45Z"/><path class="c" d="M109.7,17.86h-1.02v.81h1.02v3.46c0,.87,.16,1.35,.5,1.61,.29,.23,.77,.36,1.36,.36,.51,0,.92-.04,1.18-.11l-.05-.78c-.18,.05-.37,.09-.67,.09-.65,0-.92-.4-.92-1.23v-3.39h1.72v-.81h-1.72v-1.58l-1.4,.42v1.16Z"/><path class="c" d="M118.96,20.97c0,1.27-.76,2.32-1.98,2.32s-1.98-1.05-1.98-2.29c0-1.1,.55-2.32,1.99-2.32s1.96,1.24,1.96,2.29Zm-1.91-3.1c-2.11,0-3.46,1.02-3.46,3.16s1.29,3.07,3.34,3.07c1.81,0,3.43-.79,3.43-3.16,0-1.95-1.16-3.07-3.31-3.07Z"/><path class="c" d="M125.4,17.78c-.13,.09-.23,.09-.38,.09-.79,0-1.55,.31-1.87,.83h-.04l-.05-.92h-1.23c.04,.59,.05,1.21,.05,1.95v4.45h1.4v-3.39c0-1.34,.64-2.12,1.67-2.12,.17,0,.31,.01,.44,.03v-.93Z"/><path class="c" d="M130.83,18.17c-.37-.16-.96-.31-1.81-.31-1.81,0-2.75,.69-2.75,1.73,0,.73,.55,1.36,1.91,1.81,1.12,.32,1.5,.59,1.5,1.07s-.51,.82-1.55,.82c-.71,0-1.35-.23-1.71-.42l-.34,.88c.48,.21,1.17,.35,2.01,.35,1.98,0,2.99-.59,2.99-1.76,0-.92-.6-1.49-1.86-1.91-1.14-.33-1.55-.55-1.55-.99s.47-.77,1.35-.77c.74,0,1.21,.19,1.49,.35l.32-.86Z"/><path class="c" d="M133.54,24.1c.58,0,.95-.35,.95-.83s-.38-.84-.94-.84-.95,.36-.95,.84,.36,.83,.94,.83Z"/></g><g><path class="c" d="M8.9,28.47l.19-1.58H3.55l-1.11,8.38H7.98l.6-4.69h1.61l.56,5.16h5.53l-.56-5.16h1.39v-2.11H8.9Zm14.68,0l.18-1.58h-5.53l-1.11,8.38h5.54l.6-4.69h1.61l.56,5.16h5.54l-.56-5.16h1.38v-2.11h-8.21Zm-9.23,10.67l-2.36,2.5H3v2.11h6.83l-7.38,7.98h6.65l7.29-7.9,8.77,7.9h6.64l-8.86-7.98h8.3v-2.11h-12.6l2.45-2.62,9.04-.19v-2.35l-26.03,.47v2.35l10.25-.16Z"/><path class="c" d="M43.52,31.1l-.56,2.63h-1.66l-.56-2.63h2.77Zm4.99,14.04l-9.42,7.04h4.43l4.99-3.76v-3.28Zm0-2.3v-3.28l-8.5,6.26-.18,3.44,8.68-6.41Zm-8.31,.47l8.31-6.1h-4.43l-3.69,2.66-.19,3.44Zm-4.1-12.21l.56,2.63h-1.66l-1.11,18.45h4.99l.98-16.34h9.23v-2.11h-1.71l.58-2.63h1.13v-1.58h5l-.55,2.34h-3.88v14.53h13.16v-14.53h-4.49l.57-2.34h4.48v-2.11h-14.58v1.58h-4.49v-2.1h-4.87v2.1h-4.43v2.11h1.1Zm18.43,11.07h3.41v2.11h-3.41v-2.11Zm0-3.69h3.41v1.58h-3.41v-1.58Zm0-3.83h3.41v1.72h-3.41v-1.72Zm4.5,17.53h4.43l-1.66-4.74h-4.43l1.66,4.74Zm-5.53,0l1.66-4.74h-4.43l-1.66,4.74h4.43Z"/><path class="c" d="M74.79,44.8h1.67v5.27h-1.67v-5.27Zm1.67-5.79v1.05h-3.74l.04-1.05h3.69Zm0-3.16v1.05h-3.56l.09-1.05h3.46Zm-2.1-5.16l2.68,.94h-5.36l2.68-.94Zm15.3,21.49c3.21,0,4.82-1.33,4.82-3.99V27.54h-5.36v20.65c0,1.25-.74,1.88-2.21,1.88h-.56v2.11h3.3Zm-2-6.06V29.23h-4.87v16.89h4.87Zm-16.08-14.56v1.84h-4.15l-1.11,16.89h2.77v1.88h12.72v-9.49h-9.46v-.53h9.46v-8.76h-4.87v-1.84l5.26,1.84v-3.76l-7.94-2.81-7.94,2.81v3.76l5.26-1.84Z"/><path class="c" d="M105.69,31.58v-2.35l-8.31-1.88v2.35l8.31,1.88Zm-5.36,6.37v7.98l-2.77,2.45v3.8l3.04-2.73c.5,1.82,1.84,2.73,4.02,2.73h22.12v-2.11h-18.28c-1.84,0-2.76-.79-2.76-2.37v-11.86h-8.13v2.11h2.77Zm19.97,3.16v5.27h-7.3v-5.27h7.3Zm5.36,7.38v-9.49h-18.03v9.49h18.03Zm-14.53-14.11l.46-3.28h2.87v4.74h-8.31v2.11h20.32v-2.11h-6.65v-4.74h6.09v-2.11h-6.09v-2.1h-5.36v2.1h-2.54l.33-2.1h-4.99l-1.11,7.5h4.99Z"/><path class="c" d="M139.3,34.79v-3.69h.56l.28,3.69h-.83Zm10.21-3.69l.42,3.69h-1.16l.28-3.69h.46Zm-14.11,13.51l-.97,.12v-4.14h.97v4.02Zm23.06-12.09l-.56-5.63h-3.87l.56,5.63h3.87Zm-14.29,15.45v-3.16h.97v3.16h-.97Zm.97-8.43v3.16h-.97v-3.16h.97Zm.02-8.43l-.28,3.69h-.83l-.28-3.69h1.39Zm.26,18.97l-1.84,2.11h4.33l3.51-3.56c.24,2.37,1.47,3.56,3.69,3.56h3.32v-2.11h-.56c-1.3,0-1.99-.66-2.11-1.99l-.38-3.54,3.05-3.25v-4.39l-3.47,3.62-.41-3.62h3.87v-2.11h-4.1l-.88-7.9h-4.43l.19,1.88h-2.12v-1.88h-4.87v1.93h-1.68v-1.41h-11.47v2.11h.97v16.32l-.97,.2v2.35l5.85-1.09v4.88h4.38v-15.28h10.86l.83,7.57-1.94,1.95v-8.99h-8.77v12.65h5.16Zm-11-14.75h.97v3.16h-.97v-3.16Zm.97-5.8v3.69h-.97v-3.69h.97Z"/><polygon class="c" points="167.42 52.23 173.93 39.29 182.93 52.23 189.57 52.23 178.5 36.27 175.45 36.27 180.16 26.89 174.07 26.89 161.33 52.23 167.42 52.23"/></g><path class="b" d="M192.77,24.4c2.9,0,5.14,1.95,5.14,4.44s-2.24,4.49-5.14,4.49-5.14-1.98-5.14-4.49,2.32-4.44,5.14-4.44Zm0,8.06c2.27,0,3.92-1.59,3.92-3.59s-1.69-3.61-3.95-3.61-3.92,1.61-3.92,3.61c0,2.15,1.88,3.59,3.95,3.59Zm-1.93-1.27v-4.52c.47-.07,1.08-.15,1.88-.15,.91,0,2.24,.15,2.24,1.32,0,.54-.47,.9-1.05,1.05v.07c.5,.15,.75,.51,.88,1.1,.17,.68,.28,.95,.39,1.12h-1.16c-.14-.17-.25-.56-.39-1.12-.19-.71-.64-.71-1.69-.71v1.83h-1.11Zm1.13-2.54c.86,0,1.8,0,1.8-.68,0-.42-.33-.71-1.13-.71-.33,0-.55,.02-.66,.05v1.34Z"/></svg>