<?xml version="1.0" encoding="UTF-8"?><svg id="a" xmlns="http://www.w3.org/2000/svg" viewBox="0 0 390 90"><defs><style>.b,.c{fill:#fff;}.c{fill-rule:evenodd;}</style></defs><g><path class="c" d="M30.32,4.76l-2.06,9.27c-.51,2.77-.96,5.06-1.29,7.44h-.08c-.27-2.33-.73-4.66-1.21-7.05l-2.01-9.66h-2.93l-2.19,9.6c-.55,2.58-1.11,4.97-1.41,7.14h-.05c-.33-2.1-.76-4.59-1.24-7.08l-1.91-9.66h-3.1l4.51,19.42h3.08l2.29-8.92c.57-3.33,1.01-5.37,1.31-7.58h.08c.23,2.21,.6,4.3,1.11,6.72l2.09,10h3.05l4.95-19.42-2.98-.22Z"/><path class="c" d="M37.09,16.05c.16-1.59,1.16-3.69,3.5-3.69s3.2,2.04,3.17,3.69h-6.67Zm8.22,5.69c-.88,.4-1.97,.71-3.64,.71-2.41,0-4.52-1.27-4.61-4.63h9.33c.05-.3,.08-.64,.08-1.04,0-3.26-1.52-6.18-5.65-6.18s-6.46,2.96-6.46,6.82c0,4.44,2.32,6.8,6.85,6.8,2.07,0,3.62-.3,4.58-.66l-.47-1.82Z"/><path class="c" d="M61.7,19.34c0,1.79-1.3,3.1-2.87,3.1-1.07,0-2.02-.74-2.02-2.42,0-2.69,2.62-3.15,4.89-3.15v2.46Zm2.63-3.87c0-2.62-1.05-4.88-4.98-4.88-1.85,0-3.42,.44-4.34,.96l.56,1.66c.82-.52,2.04-.85,3.26-.85,2.77,0,2.77,1.83,2.77,2.75-4.72,0-7.52,1.54-7.52,5.25,0,2.28,1.39,3.86,3.88,3.86,1.72,0,3.07-.67,3.83-1.56h.08l.18,1.75h2.46c-.18-.98-.2-2.29-.2-3.56v-5.36Z"/><path class="c" d="M75,10.4c-.25,.21-.45,.19-.73,.19-1.52,0-2.99,.69-3.61,1.82h-.09l-.09-2h-2.37c.08,1.3,.1,2.64,.1,4.27v9.72h2.71v-7.41c0-2.92,1.24-4.63,3.23-4.63,.33,0,.6,.03,.86,.08v-2.03Z"/><path class="c" d="M79.41,16.05c.16-1.59,1.16-3.69,3.5-3.69s3.2,2.04,3.17,3.69h-6.67Zm8.22,5.69c-.88,.4-1.97,.71-3.64,.71-2.41,0-4.52-1.27-4.61-4.63h9.33c.05-.3,.08-.64,.08-1.04,0-3.26-1.52-6.18-5.65-6.18s-6.46,2.96-6.46,6.82c0,4.44,2.32,6.8,6.85,6.8,2.07,0,3.62-.3,4.58-.66l-.47-1.82Z"/><path class="c" d="M105.23,11.26c-.72-.36-1.85-.67-3.49-.67-3.49,0-5.31,1.51-5.31,3.77,0,1.6,1.05,2.97,3.69,3.95,2.15,.71,2.9,1.28,2.9,2.33s-.98,1.8-3,1.8c-1.36,0-2.61-.5-3.29-.92l-.65,1.93c.92,.45,2.26,.76,3.87,.76,3.82,0,5.77-1.3,5.77-3.85,0-2-1.16-3.25-3.58-4.18-2.19-.72-3-1.2-3-2.15s.91-1.67,2.61-1.67c1.42,0,2.33,.42,2.87,.77l.62-1.87Z"/><path class="c" d="M128.29,15.83c0-4.19-2.13-5.24-4.32-5.24s-3.71,.74-4.65,1.92h-.05c-.55-1.19-1.81-1.92-3.7-1.92-2.33,0-3.72,.87-4.44,1.73h-.07l-.15-1.92h-2.38c.06,1.19,.1,2.36,.1,3.94v10.05h2.71V15.91c0-2.34,1.64-3.55,3.09-3.55,1.86,0,2.67,1.51,2.67,3.5v8.54h2.71V15.65c0-2.06,1.5-3.29,2.97-3.29,1.95,0,2.78,1.57,2.78,3.93v8.11h2.71V15.83Z"/><path class="c" d="M133.93,10.4h-2.71v13.99h2.71V10.4Zm0-4.06c0-.78-.55-1.36-1.34-1.36s-1.36,.58-1.36,1.36,.55,1.34,1.34,1.34,1.36-.6,1.36-1.34Z"/><rect class="b" x="137.81" y="3.82" width="2.71" height="20.58"/><path class="c" d="M146.19,16.05c.16-1.59,1.16-3.69,3.5-3.69s3.2,2.04,3.17,3.69h-6.67Zm8.22,5.69c-.88,.4-1.97,.71-3.64,.71-2.41,0-4.52-1.27-4.61-4.63h9.33c.05-.3,.08-.64,.08-1.04,0-3.26-1.52-6.18-5.65-6.18s-6.46,2.96-6.46,6.82c0,4.44,2.32,6.8,6.85,6.8,2.07,0,3.62-.3,4.58-.66l-.47-1.82Z"/><path class="c" d="M172.78,21.88c-.66,.28-1.47,.56-2.63,.56-2.45,0-4.24-1.86-4.24-5,0-2.79,1.52-5.08,4.26-5.08,1.19,0,2,.31,2.51,.57l.59-1.86c-.61-.23-1.78-.48-3.12-.48-4.48,0-6.95,2.65-6.95,6.98s2.39,6.64,6.39,6.64c1.63,0,2.94-.31,3.6-.54l-.4-1.8Z"/><path class="c" d="M183.16,10.4c-.25,.21-.45,.19-.73,.19-1.52,0-2.99,.69-3.61,1.82h-.09l-.09-2h-2.37c.08,1.3,.1,2.64,.1,4.27v9.72h2.71v-7.41c0-2.92,1.24-4.63,3.23-4.63,.33,0,.6,.03,.86,.08v-2.03Z"/><path class="c" d="M187.57,16.05c.16-1.59,1.16-3.69,3.5-3.69s3.2,2.04,3.17,3.69h-6.67Zm8.22,5.69c-.88,.4-1.97,.71-3.64,.71-2.41,0-4.52-1.27-4.61-4.63h9.33c.05-.3,.08-.64,.08-1.04,0-3.26-1.52-6.18-5.65-6.18s-6.46,2.96-6.46,6.82c0,4.44,2.32,6.8,6.85,6.8,2.07,0,3.62-.3,4.58-.66l-.47-1.82Z"/><path class="c" d="M206.54,19.34c0,1.79-1.3,3.1-2.87,3.1-1.07,0-2.02-.74-2.02-2.42,0-2.69,2.62-3.15,4.89-3.15v2.46Zm2.63-3.87c0-2.62-1.05-4.88-4.97-4.88-1.85,0-3.42,.44-4.34,.96l.56,1.66c.82-.52,2.04-.85,3.26-.85,2.78,0,2.78,1.83,2.78,2.75-4.72,0-7.52,1.54-7.52,5.25,0,2.28,1.39,3.86,3.88,3.86,1.72,0,3.07-.67,3.83-1.56h.08l.18,1.75h2.47c-.18-.98-.2-2.29-.2-3.56v-5.36Z"/><path class="c" d="M213.98,10.59h-1.98v1.77h1.98v7.56c0,1.91,.31,2.95,.97,3.51,.56,.5,1.48,.78,2.62,.78,.99,0,1.78-.09,2.29-.24l-.1-1.71c-.35,.11-.71,.19-1.29,.19-1.25,0-1.78-.87-1.78-2.68v-7.4h3.32v-1.77h-3.32v-3.45l-2.71,.91v2.54Z"/><path class="c" d="M231.85,17.37c0,2.77-1.46,5.07-3.82,5.07s-3.82-2.29-3.82-5.01c0-2.4,1.06-5.07,3.85-5.07s3.79,2.72,3.79,5.01Zm-3.68-6.78c-4.07,0-6.67,2.22-6.67,6.91s2.48,6.71,6.44,6.71c3.49,0,6.61-1.73,6.61-6.91,0-4.26-2.25-6.71-6.38-6.71Z"/><path class="c" d="M244.29,10.4c-.25,.21-.45,.19-.73,.19-1.52,0-2.99,.69-3.61,1.82h-.08l-.09-2h-2.37c.08,1.3,.1,2.64,.1,4.27v9.72h2.71v-7.41c0-2.92,1.24-4.63,3.23-4.63,.33,0,.6,.03,.86,.08v-2.03Z"/><path class="c" d="M254.76,11.26c-.72-.36-1.85-.67-3.49-.67-3.49,0-5.31,1.51-5.31,3.77,0,1.6,1.05,2.97,3.69,3.95,2.15,.71,2.9,1.28,2.9,2.33s-.98,1.8-3,1.8c-1.36,0-2.61-.5-3.29-.92l-.65,1.93c.92,.45,2.26,.76,3.87,.76,3.82,0,5.77-1.3,5.77-3.85,0-2-1.16-3.25-3.58-4.18-2.19-.72-3-1.2-3-2.15s.91-1.67,2.61-1.67c1.42,0,2.33,.42,2.87,.77l.62-1.87Z"/><path class="c" d="M260,24.21c1.12,0,1.83-.76,1.83-1.82s-.73-1.83-1.81-1.83-1.83,.78-1.83,1.83,.69,1.82,1.81,1.82Z"/></g><g><path class="c" d="M19.47,33.75l.36-3.45H9.14l-2.14,18.31h10.69l1.17-10.25h3.11l1.07,11.28h10.67l-1.07-11.28h2.68v-4.61h-15.86Zm28.33,0l.35-3.45h-10.67l-2.14,18.31h10.69l1.16-10.25h3.11l1.07,11.28h10.68l-1.07-11.28h2.67v-4.61h-15.85Zm-17.8,23.31l-4.56,5.47H8.07v4.61h13.18l-14.25,17.43h12.83l14.07-17.27,16.93,17.27h12.82l-17.1-17.43h16.03v-4.61h-24.31l4.73-5.73,17.45-.42v-5.14l-50.23,1.02v5.14l19.78-.35Z"/><path class="c" d="M86.28,39.51l-1.07,5.76h-3.2l-1.07-5.76h5.34Zm9.63,30.68l-18.18,15.39h8.55l9.63-8.21v-7.18Zm0-5.02v-7.18l-16.4,13.68-.35,7.51,16.75-14.01Zm-16.04,1.02l16.04-13.33h-8.56l-7.12,5.8-.36,7.52Zm-7.92-26.68l1.07,5.76h-3.2l-2.14,40.31h9.62l1.9-35.7h17.81v-4.61h-3.29l1.11-5.76h2.18v-3.45h9.66l-1.06,5.11h-7.5v31.74h25.39v-31.74h-8.67l1.09-5.11h8.65v-4.61h-28.14v3.45h-8.66v-4.6h-9.4v4.6h-8.55v4.61h2.13Zm35.57,24.18h6.58v4.61h-6.58v-4.61Zm0-8.06h6.58v3.45h-6.58v-3.45Zm0-8.36h6.58v3.75h-6.58v-3.75Zm8.68,38.31h8.55l-3.2-10.36h-8.55l3.2,10.36Zm-10.67,0l3.2-10.36h-8.55l-3.2,10.36h8.55Z"/><path class="c" d="M146.62,69.44h3.22v11.52h-3.22v-11.52Zm3.22-12.66v2.29h-7.21l.08-2.29h7.13Zm0-6.91v2.3h-6.87l.18-2.3h6.69Zm-4.04-11.27l5.17,2.05h-10.34l5.16-2.05Zm29.52,46.97c6.2,0,9.31-2.9,9.31-8.71V31.74h-10.35v45.12c0,2.73-1.42,4.1-4.27,4.1h-1.07v4.61h6.38Zm-3.86-13.23V35.43h-9.4v36.91h9.4Zm-31.03-31.81v4.02h-8l-2.14,36.91h5.34v4.11h24.56v-20.73h-18.26v-1.16h18.26v-19.14h-9.4v-4.02l10.15,4.02v-8.21l-15.32-6.15-15.32,6.15v8.21l10.15-4.02Z"/><path class="c" d="M206.24,40.55v-5.13l-16.04-4.1v5.13l16.04,4.1Zm-10.34,13.93v17.45l-5.35,5.35v8.3l5.86-5.96c.97,3.98,3.56,5.96,7.76,5.96h42.68v-4.61h-35.28c-3.56,0-5.33-1.73-5.33-5.18v-25.91h-15.69v4.61h5.35Zm38.54,6.9v11.52h-14.1v-11.52h14.1Zm10.35,16.13v-20.73h-34.79v20.73h34.79Zm-28.04-30.83l.89-7.18h5.53v10.36h-16.04v4.61h39.21v-4.61h-12.83v-10.36h11.76v-4.61h-11.76v-4.6h-10.34v4.6h-4.91l.63-4.6h-9.62l-2.14,16.38h9.62Z"/><path class="c" d="M271.12,47.57v-8.06h1.07l.54,8.06h-1.61Zm19.7-8.06l.81,8.06h-2.24l.54-8.06h.89Zm-27.23,29.52l-1.87,.25v-9.05h1.87v8.79Zm44.5-26.43l-1.07-12.3h-7.48l1.07,12.3h7.48Zm-27.57,33.75v-6.91h1.88v6.91h-1.88Zm1.88-18.42v6.91h-1.88v-6.91h1.88Zm.05-18.42l-.54,8.06h-1.6l-.54-8.06h2.68Zm.51,41.46l-3.55,4.61h8.36l6.77-7.78c.47,5.18,2.84,7.78,7.13,7.78h6.41v-4.61h-1.07c-2.5,0-3.85-1.44-4.08-4.35l-.72-7.74,5.88-7.1v-9.59l-6.69,7.92-.79-7.92h7.48v-4.61h-7.92l-1.7-17.27h-8.55l.37,4.1h-4.1v-4.1h-9.4v4.22h-3.24v-3.08h-22.14v4.61h1.88v35.67l-1.88,.43v5.15l11.29-2.39v10.66h8.46V52.18h20.95l1.6,16.53-3.74,4.26v-19.65h-16.93v27.64h9.96Zm-21.24-32.24h1.87v6.9h-1.87v-6.9Zm1.87-12.67v8.06h-1.87v-8.06h1.87Z"/><polygon class="c" points="325.38 85.68 337.95 57.4 355.31 85.68 368.14 85.68 346.76 50.8 340.88 50.8 349.98 30.3 338.21 30.3 313.64 85.68 325.38 85.68"/></g><path class="b" d="M374.3,24.87c5.6,0,9.92,4.27,9.92,9.71s-4.32,9.82-9.92,9.82-9.92-4.32-9.92-9.82,4.48-9.71,9.92-9.71Zm0,17.6c4.37,0,7.57-3.47,7.57-7.84s-3.25-7.89-7.63-7.89-7.57,3.52-7.57,7.89c0,4.69,3.63,7.84,7.63,7.84Zm-3.73-2.77v-9.87c.91-.16,2.08-.32,3.63-.32,1.76,0,4.32,.32,4.32,2.88,0,1.17-.91,1.97-2.03,2.29v.16c.96,.32,1.44,1.12,1.71,2.4,.32,1.49,.53,2.08,.75,2.45h-2.24c-.27-.37-.48-1.23-.75-2.45-.37-1.55-1.23-1.55-3.25-1.55v4h-2.13Zm2.19-5.55c1.65,0,3.47,0,3.47-1.49,0-.91-.64-1.55-2.19-1.55-.64,0-1.07,.05-1.28,.11v2.93Z"/></svg>