<?xml version="1.0" encoding="UTF-8"?><svg id="a" xmlns="http://www.w3.org/2000/svg" viewBox="0 0 258.63 56.12"><defs><style>.b,.c{fill:#fff;}.c{fill-rule:evenodd;}</style></defs><g><path class="c" d="M15.99,.64l-1.41,6.36c-.35,1.9-.66,3.47-.88,5.1h-.05c-.19-1.6-.5-3.2-.83-4.84L11.43,.64h-2.01l-1.5,6.58c-.38,1.77-.76,3.4-.97,4.89h-.03c-.23-1.44-.52-3.15-.85-4.86L4.76,.64H2.64l3.09,13.31h2.11l1.57-6.11c.39-2.28,.69-3.68,.9-5.2h.05c.15,1.52,.41,2.95,.76,4.6l1.43,6.85h2.09L18.03,.79l-2.04-.15Z"/><path class="c" d="M20.63,8.38c.11-1.09,.79-2.53,2.4-2.53s2.19,1.4,2.17,2.53h-4.57Zm5.64,3.9c-.61,.28-1.35,.48-2.5,.48-1.65,0-3.1-.87-3.16-3.17h6.4c.03-.21,.05-.44,.05-.72,0-2.24-1.04-4.24-3.88-4.24s-4.43,2.03-4.43,4.67c0,3.04,1.59,4.66,4.69,4.66,1.42,0,2.48-.21,3.14-.45l-.32-1.24Z"/><path class="c" d="M37.51,10.64c0,1.23-.89,2.13-1.97,2.13-.73,0-1.39-.51-1.39-1.66,0-1.84,1.8-2.16,3.35-2.16v1.69Zm1.81-2.65c0-1.8-.72-3.35-3.41-3.35-1.27,0-2.35,.3-2.97,.66l.39,1.13c.56-.35,1.4-.58,2.24-.58,1.9,0,1.9,1.26,1.9,1.88-3.24,0-5.16,1.06-5.16,3.6,0,1.56,.95,2.64,2.66,2.64,1.18,0,2.1-.46,2.62-1.07h.05l.12,1.2h1.69c-.12-.67-.14-1.57-.14-2.44v-3.68Z"/><path class="c" d="M46.62,4.51c-.17,.14-.31,.13-.5,.13-1.04,0-2.05,.47-2.48,1.24h-.06l-.06-1.37h-1.62c.06,.89,.07,1.81,.07,2.93v6.67h1.86v-5.08c0-2.01,.85-3.17,2.21-3.17,.23,0,.41,.02,.59,.05v-1.39Z"/><path class="c" d="M49.65,8.38c.11-1.09,.79-2.53,2.4-2.53s2.19,1.4,2.17,2.53h-4.57Zm5.64,3.9c-.61,.28-1.35,.48-2.5,.48-1.65,0-3.1-.87-3.16-3.17h6.4c.03-.21,.05-.44,.05-.72,0-2.24-1.04-4.24-3.88-4.24s-4.43,2.03-4.43,4.67c0,3.04,1.59,4.66,4.69,4.66,1.42,0,2.48-.21,3.14-.45l-.32-1.24Z"/><path class="c" d="M67.35,5.1c-.5-.25-1.27-.46-2.39-.46-2.39,0-3.64,1.04-3.64,2.59,0,1.1,.72,2.04,2.53,2.71,1.48,.48,1.99,.88,1.99,1.6s-.67,1.23-2.06,1.23c-.94,0-1.79-.34-2.26-.63l-.44,1.32c.63,.31,1.55,.52,2.66,.52,2.62,0,3.96-.89,3.96-2.64,0-1.37-.79-2.23-2.46-2.86-1.5-.5-2.06-.83-2.06-1.48s.63-1.15,1.79-1.15c.97,0,1.6,.29,1.97,.53l.43-1.28Z"/><path class="c" d="M83.16,8.23c0-2.88-1.46-3.59-2.96-3.59s-2.54,.51-3.19,1.32h-.03c-.37-.82-1.24-1.32-2.53-1.32-1.6,0-2.55,.6-3.04,1.19h-.05l-.1-1.32h-1.63c.04,.82,.07,1.62,.07,2.7v6.89h1.86v-5.82c0-1.61,1.12-2.44,2.12-2.44,1.28,0,1.83,1.04,1.83,2.4v5.85h1.86v-6c0-1.41,1.03-2.26,2.04-2.26,1.33,0,1.91,1.08,1.91,2.7v5.56h1.86v-5.87Z"/><path class="c" d="M87.03,4.51h-1.86V14.11h1.86V4.51Zm0-2.79c0-.54-.37-.94-.92-.94s-.93,.4-.93,.94,.37,.92,.92,.92,.93-.41,.93-.92Z"/><rect class="b" x="89.68" width="1.86" height="14.11"/><path class="c" d="M95.43,8.38c.11-1.09,.79-2.53,2.4-2.53s2.19,1.4,2.17,2.53h-4.57Zm5.64,3.9c-.61,.28-1.35,.48-2.5,.48-1.65,0-3.1-.87-3.16-3.17h6.4c.03-.21,.05-.44,.05-.72,0-2.24-1.04-4.24-3.88-4.24s-4.43,2.03-4.43,4.67c0,3.04,1.59,4.66,4.69,4.66,1.42,0,2.48-.21,3.14-.45l-.32-1.24Z"/><path class="c" d="M113.66,12.38c-.45,.19-1.01,.39-1.81,.39-1.68,0-2.91-1.28-2.91-3.43,0-1.92,1.04-3.48,2.92-3.48,.82,0,1.37,.21,1.72,.39l.41-1.28c-.42-.15-1.22-.33-2.14-.33-3.07,0-4.77,1.82-4.77,4.78s1.64,4.55,4.38,4.55c1.12,0,2.02-.21,2.47-.37l-.28-1.23Z"/><path class="c" d="M120.78,4.51c-.17,.14-.31,.13-.5,.13-1.04,0-2.05,.47-2.48,1.24h-.06l-.06-1.37h-1.62c.06,.89,.07,1.81,.07,2.93v6.67h1.86v-5.08c0-2.01,.85-3.17,2.21-3.17,.23,0,.41,.02,.59,.05v-1.39Z"/><path class="c" d="M123.8,8.38c.11-1.09,.79-2.53,2.4-2.53s2.19,1.4,2.17,2.53h-4.57Zm5.64,3.9c-.61,.28-1.35,.48-2.5,.48-1.65,0-3.1-.87-3.16-3.17h6.4c.03-.21,.05-.44,.05-.72,0-2.24-1.04-4.24-3.88-4.24s-4.43,2.03-4.43,4.67c0,3.04,1.59,4.66,4.69,4.66,1.42,0,2.48-.21,3.14-.45l-.32-1.24Z"/><path class="c" d="M136.81,10.64c0,1.23-.89,2.13-1.97,2.13-.73,0-1.39-.51-1.39-1.66,0-1.84,1.8-2.16,3.35-2.16v1.69Zm1.8-2.65c0-1.8-.72-3.35-3.41-3.35-1.27,0-2.35,.3-2.97,.66l.39,1.13c.56-.35,1.4-.58,2.24-.58,1.9,0,1.9,1.26,1.9,1.88-3.24,0-5.16,1.06-5.16,3.6,0,1.56,.95,2.64,2.66,2.64,1.18,0,2.1-.46,2.62-1.07h.05l.12,1.2h1.69c-.12-.67-.14-1.57-.14-2.44v-3.68Z"/><path class="c" d="M141.91,4.64h-1.35v1.21h1.35v5.18c0,1.31,.21,2.02,.66,2.41,.39,.34,1.01,.54,1.8,.54,.68,0,1.22-.06,1.57-.17l-.07-1.17c-.24,.08-.48,.13-.88,.13-.86,0-1.22-.6-1.22-1.84V5.85h2.28v-1.21h-2.28V2.28l-1.86,.63v1.74Z"/><path class="c" d="M154.16,9.29c0,1.9-1,3.48-2.62,3.48s-2.62-1.57-2.62-3.44c0-1.64,.73-3.48,2.64-3.48s2.6,1.86,2.6,3.44Zm-2.52-4.65c-2.79,0-4.57,1.52-4.57,4.74s1.7,4.6,4.42,4.6c2.39,0,4.53-1.19,4.53-4.74,0-2.92-1.54-4.6-4.38-4.6Z"/><path class="c" d="M162.69,4.51c-.17,.14-.31,.13-.5,.13-1.04,0-2.05,.47-2.48,1.24h-.06l-.06-1.37h-1.63c.06,.89,.07,1.81,.07,2.93v6.67h1.86v-5.08c0-2.01,.85-3.17,2.21-3.17,.23,0,.41,.02,.59,.05v-1.39Z"/><path class="c" d="M169.87,5.1c-.5-.25-1.27-.46-2.39-.46-2.39,0-3.64,1.04-3.64,2.59,0,1.1,.72,2.04,2.53,2.71,1.48,.48,1.99,.88,1.99,1.6s-.67,1.23-2.06,1.23c-.94,0-1.79-.34-2.26-.63l-.45,1.32c.63,.31,1.55,.52,2.66,.52,2.62,0,3.96-.89,3.96-2.64,0-1.37-.79-2.23-2.46-2.86-1.5-.5-2.06-.83-2.06-1.48s.63-1.15,1.79-1.15c.97,0,1.6,.29,1.97,.53l.43-1.28Z"/><path class="c" d="M173.46,13.98c.77,0,1.26-.52,1.26-1.24s-.5-1.26-1.24-1.26-1.26,.54-1.26,1.26,.47,1.24,1.24,1.24Z"/></g><g><path class="c" d="M8.55,20.52l.24-2.37H1.47L0,30.71H7.33l.8-7.03h2.13l.74,7.73h7.32l-.73-7.73h1.84v-3.16H8.55Zm19.42,0l.24-2.37h-7.32l-1.47,12.55h7.33l.79-7.03h2.13l.74,7.73h7.32l-.74-7.73h1.83v-3.16h-10.86Zm-12.21,15.98l-3.13,3.75H.73v3.16H9.77L0,55.37H8.79l9.65-11.84,11.61,11.84h8.79l-11.72-11.95h10.99v-3.16H21.43l3.24-3.93,11.97-.29v-3.52l-34.44,.7v3.52l13.56-.24Z"/><path class="c" d="M54.36,24.47l-.74,3.95h-2.19l-.74-3.95h3.66Zm6.6,21.03l-12.46,10.55h5.86l6.6-5.63v-4.92Zm0-3.44v-4.92l-11.25,9.38-.24,5.15,11.48-9.61Zm-10.99,.7l10.99-9.14h-5.87l-4.88,3.98-.24,5.16Zm-5.43-18.29l.74,3.95h-2.19l-1.47,27.64h6.6l1.3-24.48h12.21v-3.16h-2.26l.76-3.95h1.5v-2.37h6.62l-.73,3.5h-5.14v21.76h17.41V25.6h-5.94l.75-3.5h5.93v-3.16h-19.29v2.37h-5.94v-3.15h-6.45v3.15h-5.86v3.16h1.46Zm24.39,16.58h4.51v3.16h-4.51v-3.16Zm0-5.53h4.51v2.37h-4.51v-2.37Zm0-5.73h4.51v2.57h-4.51v-2.57Zm5.95,26.26h5.86l-2.19-7.11h-5.86l2.19,7.11Zm-7.32,0l2.19-7.11h-5.86l-2.19,7.11h5.86Z"/><path class="c" d="M95.73,44.99h2.21v7.9h-2.21v-7.9Zm2.21-8.68v1.57h-4.95l.06-1.57h4.89Zm0-4.74v1.58h-4.71l.12-1.58h4.58Zm-2.77-7.72l3.55,1.41h-7.09l3.54-1.41Zm20.24,32.2c4.25,0,6.38-1.99,6.38-5.97V19.14h-7.09v30.94c0,1.87-.97,2.81-2.93,2.81h-.73v3.16h4.37Zm-2.64-9.07V21.67h-6.44v25.31h6.44Zm-21.27-21.81v2.75h-5.49l-1.47,25.31h3.66v2.82h16.84v-14.21h-12.52v-.79h12.52v-13.12h-6.45v-2.75l6.96,2.75v-5.63l-10.5-4.22-10.5,4.22v5.63l6.96-2.75Z"/><path class="c" d="M136.61,25.19v-3.51l-11-2.81v3.51l11,2.81Zm-7.09,9.55v11.96l-3.67,3.67v5.69l4.02-4.09c.66,2.73,2.44,4.09,5.32,4.09h29.26v-3.16h-24.19c-2.44,0-3.66-1.19-3.66-3.55V31.58h-10.76v3.16h3.67Zm26.42,4.73v7.9h-9.66v-7.9h9.66Zm7.09,11.06v-14.21h-23.85v14.21h23.85Zm-19.23-21.14l.61-4.92h3.79v7.11h-11v3.16h26.88v-3.16h-8.8v-7.11h8.06v-3.16h-8.06v-3.15h-7.09v3.15h-3.37l.43-3.15h-6.6l-1.47,11.23h6.6Z"/><path class="c" d="M181.08,30v-5.53h.74l.37,5.53h-1.1Zm13.51-5.53l.55,5.53h-1.53l.37-5.53h.61Zm-18.67,20.24l-1.28,.17v-6.2h1.28v6.03Zm30.51-18.12l-.73-8.43h-5.13l.74,8.43h5.13Zm-18.91,23.14v-4.74h1.29v4.74h-1.29Zm1.29-12.63v4.74h-1.29v-4.74h1.29Zm.03-12.63l-.37,5.53h-1.1l-.37-5.53h1.84Zm.35,28.42l-2.44,3.16h5.73l4.64-5.33c.32,3.55,1.95,5.33,4.89,5.33h4.39v-3.16h-.74c-1.72,0-2.64-.99-2.8-2.98l-.5-5.31,4.03-4.87v-6.58l-4.58,5.43-.54-5.43h5.13v-3.16h-5.43l-1.17-11.84h-5.86l.25,2.81h-2.81v-2.81h-6.45v2.89h-2.22v-2.11h-15.18v3.16h1.29v24.46l-1.29,.3v3.53l7.74-1.64v7.31h5.8v-22.9h14.37l1.1,11.34-2.57,2.92v-13.47h-11.61v18.95h6.83Zm-14.56-22.1h1.28v4.73h-1.28v-4.73Zm1.28-8.69v5.53h-1.28v-5.53h1.28Z"/><polygon class="c" points="218.29 56.12 226.9 36.73 238.81 56.12 247.6 56.12 232.94 32.21 228.91 32.21 235.15 18.16 227.08 18.16 210.23 56.12 218.29 56.12"/></g><path class="b" d="M251.82,14.43c3.84,0,6.8,2.93,6.8,6.66s-2.96,6.73-6.8,6.73-6.8-2.96-6.8-6.73,3.07-6.66,6.8-6.66Zm0,12.07c3,0,5.19-2.38,5.19-5.38s-2.23-5.41-5.23-5.41-5.19,2.41-5.19,5.41c0,3.22,2.49,5.38,5.23,5.38Zm-2.56-1.9v-6.77c.62-.11,1.43-.22,2.49-.22,1.21,0,2.96,.22,2.96,1.97,0,.8-.62,1.35-1.39,1.57v.11c.66,.22,.99,.77,1.17,1.65,.22,1.02,.37,1.43,.51,1.68h-1.54c-.18-.26-.33-.84-.51-1.68-.26-1.06-.84-1.06-2.23-1.06v2.74h-1.46Zm1.5-3.8c1.13,0,2.38,0,2.38-1.02,0-.62-.44-1.06-1.5-1.06-.44,0-.73,.04-.88,.07v2.01Z"/></svg>