<?xml version="1.0" encoding="UTF-8"?><svg id="a" xmlns="http://www.w3.org/2000/svg" viewBox="0 0 383.49 83.22"><defs><style>.b,.c{fill:#fff;}.c{fill-rule:evenodd;}</style></defs><g><path class="c" d="M23.71,.96l-2.09,9.43c-.52,2.82-.98,5.14-1.31,7.56h-.08c-.28-2.37-.75-4.74-1.23-7.17L16.95,.96h-2.97l-2.23,9.76c-.56,2.62-1.13,5.05-1.43,7.26h-.05c-.33-2.13-.77-4.67-1.26-7.2L7.07,.96H3.91l4.59,19.74h3.13l2.33-9.06c.58-3.38,1.02-5.46,1.33-7.71h.08c.23,2.25,.61,4.37,1.13,6.83l2.12,10.16h3.1L26.74,1.18l-3.03-.22Z"/><path class="c" d="M30.6,12.43c.16-1.62,1.18-3.75,3.56-3.75s3.25,2.07,3.22,3.75h-6.78Zm8.36,5.78c-.9,.41-2,.72-3.7,.72-2.45,0-4.6-1.29-4.68-4.7h9.48c.05-.31,.08-.65,.08-1.06,0-3.32-1.55-6.28-5.75-6.28s-6.57,3.01-6.57,6.93c0,4.51,2.36,6.91,6.96,6.91,2.1,0,3.68-.31,4.66-.67l-.48-1.85Z"/><path class="c" d="M55.62,15.78c0,1.82-1.32,3.15-2.92,3.15-1.09,0-2.06-.76-2.06-2.46,0-2.73,2.67-3.2,4.97-3.2v2.51Zm2.68-3.93c0-2.67-1.07-4.96-5.06-4.96-1.88,0-3.48,.45-4.41,.98l.57,1.68c.83-.53,2.07-.86,3.32-.86,2.82,0,2.82,1.86,2.82,2.79-4.8,0-7.65,1.57-7.65,5.34,0,2.31,1.41,3.92,3.95,3.92,1.75,0,3.12-.68,3.89-1.59h.08l.18,1.78h2.51c-.18-.99-.2-2.32-.2-3.62v-5.45Z"/><path class="c" d="M69.14,6.69c-.26,.21-.46,.19-.75,.19-1.55,0-3.04,.7-3.67,1.85h-.09l-.1-2.04h-2.41c.09,1.32,.11,2.69,.11,4.34v9.89h2.75v-7.53c0-2.97,1.26-4.7,3.28-4.7,.33,0,.61,.03,.87,.08v-2.07Z"/><path class="c" d="M73.62,12.43c.16-1.62,1.18-3.75,3.56-3.75s3.25,2.07,3.22,3.75h-6.78Zm8.36,5.78c-.9,.41-2,.72-3.7,.72-2.45,0-4.6-1.29-4.68-4.7h9.48c.05-.31,.08-.65,.08-1.06,0-3.32-1.55-6.28-5.75-6.28s-6.57,3.01-6.57,6.93c0,4.51,2.36,6.91,6.96,6.91,2.1,0,3.68-.31,4.66-.67l-.48-1.85Z"/><path class="c" d="M99.87,7.56c-.74-.36-1.88-.68-3.55-.68-3.55,0-5.4,1.54-5.4,3.83,0,1.63,1.07,3.02,3.75,4.02,2.19,.72,2.94,1.3,2.94,2.37s-.99,1.83-3.05,1.83c-1.39,0-2.65-.51-3.35-.94l-.66,1.96c.94,.46,2.29,.77,3.94,.77,3.88,0,5.87-1.32,5.87-3.91,0-2.04-1.18-3.31-3.64-4.25-2.23-.74-3.05-1.22-3.05-2.19s.93-1.7,2.65-1.7c1.44,0,2.37,.43,2.92,.78l.63-1.9Z"/><path class="c" d="M123.31,12.21c0-4.26-2.17-5.33-4.39-5.33s-3.77,.76-4.72,1.95h-.05c-.55-1.21-1.84-1.95-3.76-1.95-2.37,0-3.79,.89-4.51,1.76h-.07l-.15-1.95h-2.42c.06,1.21,.11,2.4,.11,4.01v10.22h2.75V12.3c0-2.38,1.66-3.61,3.14-3.61,1.89,0,2.72,1.54,2.72,3.56v8.68h2.75V12.03c0-2.09,1.53-3.35,3.02-3.35,1.98,0,2.83,1.6,2.83,4v8.24h2.75V12.21Z"/><path class="c" d="M129.05,6.69h-2.75v14.23h2.75V6.69Zm0-4.13c0-.79-.55-1.39-1.37-1.39s-1.39,.59-1.39,1.39,.55,1.37,1.37,1.37,1.39-.61,1.39-1.37Z"/><rect class="b" x="132.99" width="2.75" height="20.92"/><path class="c" d="M141.5,12.43c.16-1.62,1.18-3.75,3.56-3.75s3.25,2.07,3.22,3.75h-6.78Zm8.36,5.78c-.9,.41-2,.72-3.7,.72-2.45,0-4.6-1.29-4.68-4.7h9.48c.05-.31,.08-.65,.08-1.06,0-3.32-1.55-6.28-5.75-6.28s-6.57,3.01-6.57,6.93c0,4.51,2.36,6.91,6.96,6.91,2.1,0,3.68-.31,4.66-.67l-.48-1.85Z"/><path class="c" d="M168.54,18.36c-.67,.29-1.49,.57-2.68,.57-2.49,0-4.31-1.89-4.31-5.09,0-2.84,1.55-5.16,4.33-5.16,1.21,0,2.04,.32,2.55,.58l.6-1.89c-.62-.23-1.81-.49-3.17-.49-4.55,0-7.07,2.7-7.07,7.09s2.43,6.75,6.49,6.75c1.65,0,2.99-.32,3.66-.55l-.41-1.83Z"/><path class="c" d="M179.09,6.69c-.26,.21-.46,.19-.75,.19-1.55,0-3.04,.7-3.67,1.85h-.09l-.1-2.04h-2.41c.09,1.32,.11,2.69,.11,4.34v9.89h2.75v-7.53c0-2.97,1.26-4.7,3.28-4.7,.33,0,.61,.03,.87,.08v-2.07Z"/><path class="c" d="M183.57,12.43c.16-1.62,1.18-3.75,3.56-3.75s3.25,2.07,3.22,3.75h-6.78Zm8.36,5.78c-.9,.41-2,.72-3.7,.72-2.45,0-4.6-1.29-4.68-4.7h9.48c.05-.31,.08-.65,.08-1.06,0-3.32-1.55-6.28-5.75-6.28s-6.57,3.01-6.57,6.93c0,4.51,2.36,6.91,6.96,6.91,2.1,0,3.68-.31,4.66-.67l-.48-1.85Z"/><path class="c" d="M202.86,15.78c0,1.82-1.32,3.15-2.92,3.15-1.09,0-2.06-.76-2.06-2.46,0-2.73,2.67-3.2,4.97-3.2v2.51Zm2.68-3.93c0-2.67-1.07-4.96-5.06-4.96-1.88,0-3.48,.45-4.41,.98l.57,1.68c.83-.53,2.07-.86,3.32-.86,2.82,0,2.82,1.86,2.82,2.79-4.8,0-7.65,1.57-7.65,5.34,0,2.31,1.41,3.92,3.95,3.92,1.75,0,3.12-.68,3.89-1.59h.08l.18,1.78h2.51c-.18-.99-.2-2.32-.2-3.62v-5.45Z"/><path class="c" d="M210.43,6.88h-2.01v1.8h2.01v7.69c0,1.94,.32,3,.98,3.57,.57,.51,1.5,.79,2.67,.79,1,0,1.81-.1,2.32-.25l-.11-1.74c-.35,.11-.72,.19-1.31,.19-1.27,0-1.81-.89-1.81-2.73v-7.52h3.38v-1.8h-3.38V3.37l-2.75,.93v2.58Z"/><path class="c" d="M228.6,13.78c0,2.82-1.48,5.15-3.88,5.15s-3.88-2.33-3.88-5.1c0-2.44,1.08-5.15,3.91-5.15s3.85,2.76,3.85,5.1Zm-3.74-6.89c-4.14,0-6.78,2.26-6.78,7.03s2.52,6.82,6.55,6.82c3.55,0,6.72-1.76,6.72-7.03,0-4.33-2.28-6.82-6.49-6.82Z"/><path class="c" d="M241.24,6.69c-.26,.21-.46,.19-.75,.19-1.55,0-3.04,.7-3.67,1.85h-.09l-.1-2.04h-2.41c.09,1.32,.11,2.69,.11,4.34v9.89h2.75v-7.53c0-2.97,1.26-4.7,3.28-4.7,.34,0,.61,.03,.87,.08v-2.07Z"/><path class="c" d="M251.89,7.56c-.74-.36-1.88-.68-3.55-.68-3.55,0-5.4,1.54-5.4,3.83,0,1.63,1.07,3.02,3.75,4.02,2.19,.72,2.94,1.3,2.94,2.37s-1,1.83-3.05,1.83c-1.39,0-2.65-.51-3.35-.94l-.66,1.96c.94,.46,2.3,.77,3.94,.77,3.88,0,5.87-1.32,5.87-3.91,0-2.04-1.18-3.31-3.64-4.25-2.23-.74-3.05-1.22-3.05-2.19s.93-1.7,2.65-1.7c1.44,0,2.37,.43,2.92,.78l.63-1.9Z"/><path class="c" d="M257.21,20.73c1.14,0,1.86-.77,1.86-1.85s-.75-1.86-1.85-1.86-1.86,.79-1.86,1.86,.7,1.85,1.85,1.85Z"/></g><g><path class="c" d="M12.68,30.43l.36-3.51H2.18L0,45.54H10.87l1.19-10.42h3.16l1.09,11.46h10.85l-1.09-11.46h2.72v-4.68H12.68Zm28.8,0l.35-3.51h-10.85l-2.18,18.62h10.87l1.18-10.42h3.16l1.09,11.46h10.86l-1.09-11.46h2.72v-4.68h-16.11Zm-18.1,23.7l-4.64,5.56H1.09v4.69H14.49L0,82.1H13.04l14.3-17.55,17.21,17.55h13.03l-17.38-17.72h16.29v-4.69H31.78l4.81-5.82,17.75-.43v-5.22l-51.07,1.04v5.22l20.11-.35Z"/><path class="c" d="M80.6,36.28l-1.09,5.85h-3.25l-1.09-5.85h5.43Zm9.79,31.19l-18.48,15.64h8.69l9.79-8.35v-7.3Zm0-5.11v-7.3l-16.67,13.9-.35,7.64,17.03-14.25Zm-16.3,1.04l16.3-13.55h-8.7l-7.24,5.9-.36,7.65Zm-8.05-27.12l1.09,5.85h-3.25l-2.18,40.98h9.78l1.93-36.29h18.11v-4.69h-3.35l1.13-5.85h2.22v-3.51h9.82l-1.08,5.19h-7.62v32.27h25.81V37.97h-8.82l1.11-5.19h8.8v-4.68h-28.61v3.51h-8.81v-4.67h-9.56v4.67h-8.69v4.69h2.16Zm36.16,24.58h6.69v4.69h-6.69v-4.69Zm0-8.19h6.69v3.51h-6.69v-3.51Zm0-8.5h6.69v3.81h-6.69v-3.81Zm8.82,38.94h8.69l-3.25-10.54h-8.69l3.25,10.54Zm-10.85,0l3.25-10.54h-8.69l-3.25,10.54h8.69Z"/><path class="c" d="M141.94,66.72h3.27v11.71h-3.27v-11.71Zm3.27-12.87v2.33h-7.33l.09-2.33h7.25Zm0-7.03v2.34h-6.98l.18-2.34h6.8Zm-4.11-11.45l5.26,2.08h-10.51l5.25-2.08Zm30.01,47.75c6.3,0,9.47-2.94,9.47-8.85V28.39h-10.52v45.87c0,2.77-1.44,4.17-4.34,4.17h-1.09v4.69h6.48Zm-3.92-13.45V32.13h-9.55v37.53h9.55Zm-31.54-32.34v4.08h-8.14l-2.18,37.53h5.43v4.18h24.96v-21.07h-18.57v-1.18h18.57v-19.46h-9.56v-4.08l10.32,4.08v-8.35l-15.58-6.25-15.58,6.25v8.35l10.32-4.08Z"/><path class="c" d="M202.56,37.35v-5.21l-16.31-4.17v5.21l16.31,4.17Zm-10.51,14.16v17.74l-5.44,5.44v8.43l5.96-6.06c.99,4.04,3.61,6.06,7.89,6.06h43.39v-4.69h-35.86c-3.61,0-5.42-1.76-5.42-5.27v-26.34h-15.95v4.68h5.44Zm39.18,7.02v11.71h-14.33v-11.71h14.33Zm10.52,16.4v-21.07h-35.37v21.07h35.37Zm-28.51-31.34l.91-7.3h5.62v10.54h-16.31v4.68h39.86v-4.68h-13.04v-10.54h11.95v-4.69h-11.95v-4.67h-10.51v4.67h-4.99l.64-4.67h-9.78l-2.18,16.66h9.78Z"/><path class="c" d="M268.51,44.48v-8.19h1.09l.55,8.19h-1.64Zm20.03-8.19l.82,8.19h-2.28l.54-8.19h.91Zm-27.68,30.01l-1.9,.26v-9.2h1.9v8.94Zm45.24-26.87l-1.09-12.51h-7.6l1.09,12.51h7.6Zm-28.03,34.31v-7.03h1.91v7.03h-1.91Zm1.91-18.73v7.03h-1.91v-7.03h1.91Zm.05-18.73l-.55,8.19h-1.63l-.55-8.19h2.72Zm.52,42.14l-3.61,4.69h8.5l6.88-7.91c.48,5.27,2.89,7.91,7.25,7.91h6.51v-4.69h-1.09c-2.54,0-3.91-1.46-4.15-4.43l-.74-7.87,5.98-7.22v-9.75l-6.8,8.05-.8-8.05h7.6v-4.69h-8.05l-1.73-17.55h-8.69l.37,4.17h-4.17v-4.17h-9.56v4.29h-3.3v-3.13h-22.51v4.68h1.91v36.27l-1.91,.44v5.23l11.47-2.43v10.83h8.6V49.16h21.3l1.63,16.81-3.81,4.33v-19.97h-17.21v28.1h10.13Zm-21.59-32.77h1.9v7.02h-1.9v-7.02Zm1.9-12.88v8.19h-1.9v-8.19h1.9Z"/><polygon class="c" points="323.68 83.22 336.46 54.47 354.1 83.22 367.15 83.22 345.41 47.77 339.44 47.77 348.68 26.92 336.72 26.92 311.74 83.22 323.68 83.22"/></g><path class="b" d="M373.41,21.4c5.69,0,10.09,4.34,10.09,9.87s-4.39,9.98-10.09,9.98-10.09-4.39-10.09-9.98,4.56-9.87,10.09-9.87Zm0,17.9c4.45,0,7.7-3.52,7.7-7.97s-3.31-8.03-7.75-8.03-7.7,3.58-7.7,8.03c0,4.77,3.69,7.97,7.75,7.97Zm-3.8-2.82v-10.03c.92-.16,2.11-.33,3.69-.33,1.79,0,4.39,.33,4.39,2.93,0,1.19-.92,2.01-2.06,2.33v.16c.98,.32,1.47,1.14,1.74,2.44,.33,1.52,.54,2.11,.76,2.49h-2.28c-.27-.38-.49-1.25-.76-2.49-.38-1.57-1.25-1.57-3.31-1.57v4.07h-2.17Zm2.22-5.64c1.68,0,3.53,0,3.53-1.52,0-.92-.65-1.57-2.22-1.57-.65,0-1.08,.05-1.3,.11v2.98Z"/></svg>