<?xml version="1.0" encoding="utf-8"?>
<!-- Generator: Adobe Illustrator 26.3.1, SVG Export Plug-In . SVG Version: 6.00 Build 0)  -->
<svg version="1.1" id="レイヤー_1" xmlns="http://www.w3.org/2000/svg" xmlns:xlink="http://www.w3.org/1999/xlink" x="0px"
	 y="0px" width="30px" height="23px" viewBox="0 0 30 23" style="enable-background:new 0 0 30 23;" xml:space="preserve">
<style type="text/css">
	.st0{fill:#FFFFFF;}
</style>
<path class="st0" d="M27.6,1.6c-1.5-2.1-3.7-1.8-5.1-1c-0.2,0.2-0.6,0.2-0.9,0c-1.4-0.9-3.5-1.1-5,0.7C17.5,2,18.1,3,18.3,4
	c0.2,1.4-0.2,2.6-1.1,3.6l0,0c0,0.9-0.1,2,0,2.9c0.2,1.5,1.3,3.2,2,3.2c0.7,0,1-4.9,3-4.9s2.2,4.9,3,4.9s1.8-1.7,2-3.2
	c0.1-1.4-0.2-3.2,0.1-3.9C27.4,5.8,28.7,3.1,27.6,1.6z"/>
<path class="st0" d="M19.7,23c2.6,0,5.1,0,7.7,0c0.6,0,0.9-0.2,0.9-0.9c0-1.3,0-2.7,0-3.9c0-0.6-0.2-0.9-0.9-0.9c-0.6,0-1.4,0-2,0
	c-0.1,0-0.3-0.1-0.4-0.1c-0.6-0.5-1.4-1.1-2-1.7c-1-0.7-2-1.1-3.2-1.1c-2.3,0-4.7,0-7,0c-0.9,0-1.5,0.6-1.5,1.5
	c0,0.6,0.5,1.2,1.2,1.3c0.1,0,0.3,0,0.4,0c1.1,0,2.1,0,3.2,0c0.5,0,0.9,0.4,0.6,1c-0.1,0.3-0.4,0.4-0.7,0.4c-1.6,0-3.1,0-4.7,0
	c-0.3,0-0.6-0.1-1-0.3C8.6,17.1,7,16,5.4,14.7c-0.6-0.4-1.3-0.6-2-0.2c-1.1,0.6-1.2,2.1-0.2,3c2.2,1.6,4.3,3.1,6.2,4.6
	c0.9,0.6,1.8,1,2.9,1C14.7,23,17.1,23,19.7,23z"/>
<path class="st0" d="M10,2.6c0.3-0.3,0.6-0.6,1.1-1c2.8-2.1,5.9-0.1,6.2,2.4c0.2,1.4-0.2,2.6-1.1,3.6c-1.8,1.9-3.5,3.8-5.3,5.6
	c-0.4,0.5-1,0.5-1.5,0c-1.8-1.9-3.6-3.8-5.4-5.7c-1.6-1.7-1.6-4.3,0-5.9c1.4-1.3,3.5-1.4,5-0.2C9.3,1.8,9.7,2.2,10,2.6z"/>
</svg>
