<?xml version="1.0" encoding="utf-8"?>
<!-- Generator: Adobe Illustrator 26.3.1, SVG Export Plug-In . SVG Version: 6.00 Build 0)  -->
<svg version="1.1" id="レイヤー_1" xmlns="http://www.w3.org/2000/svg" xmlns:xlink="http://www.w3.org/1999/xlink" x="0px"
	 y="0px" width="122px" height="20px" viewBox="0 0 122 20" style="enable-background:new 0 0 122 20;" xml:space="preserve">
<style type="text/css">
	.st0{fill-rule:evenodd;clip-rule:evenodd;fill:#FFFFFF;}
</style>
<g>
	<path class="st0" d="M4.8,2.2L4.9,1H1.3L0.6,7.1h3.5l0.4-3.4h1l0.4,3.8h3.5L9.2,3.7H10V2.2H4.8z M14.2,2.2L14.4,1h-3.7L10,7.1h3.7
		l0.4-3.4h1l0.4,3.8H19l-0.4-3.8h0.8V2.2H14.2z M8.3,9.9l-1.6,1.8H1v1.6h4.4l-4.8,5.8h4.2l4.7-5.8l5.6,5.8h4.2l-5.6-5.8H19v-1.6h-8
		l1.6-2l5.8-0.1V7.9L1.7,8.4v1.7L8.3,9.9z"/>
	<path class="st0" d="M27.1,4.1l-0.4,2h-1.1l-0.4-2H27.1z M30.3,14.3l-6.1,5.1h2.8l3.2-2.7V14.3z M30.3,12.6v-2.4l-5.5,4.5l-0.1,2.7
		L30.3,12.6z M25,13l5.4-4.5h-2.8l-2.4,2L25,13z M22.3,4.1l0.4,2h-1.1l-0.7,13.4h3.2l0.6-11.8h5.9V6h-1.1l0.4-2h0.7V3h3.2l-0.3,1.7
		H31v10.6h8.5V4.7h-3L36.9,3h2.8V1.5h-9.4v1.1h-2.8V1h-3.1v1.6h-2.8v1.6H22.3z M34.1,12.2h2.3v1.6h-2.3V12.2z M34.1,9.5h2.3v1.1
		h-2.3V9.5z M34.1,6.7h2.3v1.3h-2.3V6.7z M37.1,19.5h2.8L38.8,16h-2.8L37.1,19.5z M33.4,19.5l1.1-3.5h-2.8l-1.1,3.5H33.4z"/>
	<path class="st0" d="M47.2,14.1h1.1v3.8h-1.1V14.1z M48.2,9.9v0.7h-2.4V9.9H48.2z M48.2,7.5v0.7H46V7.5H48.2z M46.9,3.9l1.7,0.7
		h-3.4L46.9,3.9z M56.7,19.5c2.1,0,3.1-1,3.1-3V1.5h-3.4v15.1c0,0.8-0.4,1.4-1.4,1.4h-0.4v1.6H56.7z M55.4,15V2.7h-3.1V15H55.4z
		 M45.1,4.4v1.3h-2.7l-0.7,12.3h1.8v1.4h8.2v-6.9h-6.1V12h6.1V5.8h-3.1V4.4L52,5.7V3l-5.1-2.1L41.9,3v2.7L45.1,4.4z"/>
	<path class="st0" d="M67.1,4.4V2.7l-5.4-1.4V3L67.1,4.4z M63.6,9.1v5.8l-1.8,1.8v2.8l2-2c0.3,1.3,1.1,2,2.5,2h14.2v-1.6H68.8
		c-1.1,0-1.8-0.6-1.8-1.7V7.5h-5.2v1.6H63.6z M76.4,11.3v3.8h-4.7v-3.8H76.4z M79.9,16.8V9.9H68.4v6.9H79.9z M70.5,6.5l0.3-2.4h1.8
		v3.4h-5.4v1.6h13.1V7.5h-4.2V4.1h3.9V2.6h-3.9V1h-3.4v1.6H71L71.2,1h-3.2l-0.7,5.5H70.5z"/>
	<path class="st0" d="M88.7,6.8V4.1h0.4l0.1,2.7H88.7z M95.3,4.1l0.3,2.7h-0.7L95,4.1H95.3z M86.1,14h-0.6v-3h0.6V14z M100.9,5.1
		L100.5,1H98l0.4,4.1H100.9z M91.8,16.4v-2.3h0.6v2.3H91.8z M92.5,10.2v2.3h-0.6v-2.3H92.5z M92.5,4.1l-0.1,2.7h-0.6l-0.1-2.7H92.5z
		 M92.6,17.9l-1.1,1.6h2.8l2.3-2.5c0.1,1.7,1,2.5,2.4,2.5h2.1v-1.6h-0.4c-0.8,0-1.3-0.4-1.4-1.4L99,14l2-2.4V8.4L98.7,11l-0.3-2.7
		h2.5V6.8h-2.7L97.7,1h-2.8L95,2.4h-1.4V1h-3.1v1.4h-1.1v-1H82V3h0.7v11.8L82.2,15v1.7l3.8-0.8v3.5h2.8V8.2h7l0.6,5.5l-1.3,1.4V8.6
		h-5.6v9.2h3.1V17.9z M85.6,7.2h0.6v2.3h-0.6V7.2z M86.1,3v2.7h-0.6V3H86.1z"/>
	<polygon class="st0" points="106.7,19.5 110.9,10.1 116.7,19.5 120.9,19.5 113.9,7.8 111.9,7.8 115,1 111.1,1 102.9,19.5 	"/>
</g>
</svg>
